<svg width="70" height="70" viewBox="0 0 70 70" fill="none" xmlns="http://www.w3.org/2000/svg">
<rect x="1" y="1" width="68" height="68" rx="9" stroke="#F2ECDC" stroke-width="2"/>
<path d="M42.5 27.25C42.3829 27.3662 42.2899 27.5045 42.2264 27.6568C42.1629 27.8091 42.1303 27.9725 42.1303 28.1375C42.1303 28.3025 42.1629 28.4659 42.2264 28.6182C42.2899 28.7705 42.3829 28.9088 42.5 29.025L48.25 34.775H18.825C18.4935 34.775 18.1755 34.9067 17.9411 35.1411C17.7067 35.3755 17.575 35.6935 17.575 36.025C17.575 36.3565 17.7067 36.6745 17.9411 36.9089C18.1755 37.1433 18.4935 37.275 18.825 37.275H48.225L42.5 42.9875C42.2672 43.2217 42.1365 43.5385 42.1365 43.8687C42.1365 44.199 42.2672 44.5158 42.5 44.75C42.7342 44.9828 43.051 45.1135 43.3813 45.1135C43.7115 45.1135 44.0283 44.9828 44.2625 44.75L52.2125 36.8C52.3195 36.6973 52.4047 36.5741 52.4628 36.4377C52.521 36.3013 52.551 36.1545 52.551 36.0062C52.551 35.858 52.521 35.7112 52.4628 35.5748C52.4047 35.4384 52.3195 35.3152 52.2125 35.2125L44.275 27.25C44.1588 27.1328 44.0206 27.0398 43.8682 26.9764C43.7159 26.9129 43.5525 26.8802 43.3875 26.8802C43.2225 26.8802 43.0591 26.9129 42.9068 26.9764C42.7545 27.0398 42.6162 27.1328 42.5 27.25Z" fill="#F2ECDC"/>
</svg>
