<svg width="598" height="63" viewBox="0 0 598 63" fill="none" xmlns="http://www.w3.org/2000/svg">
<path d="M335.933 39.891L336.137 40.214C335.854 41.336 335.032 42.3787 333.672 43.342L331.887 44.6V44.668C332.136 44.6113 332.323 44.583 332.448 44.583C332.935 44.583 333.264 44.7927 333.434 45.212C333.513 45.416 333.553 45.6087 333.553 45.79C333.553 46.232 333.36 46.6457 332.975 47.031C332.578 47.405 332.159 47.643 331.717 47.745C331.014 47.915 330.584 48 330.425 48C330.119 48 329.887 47.8527 329.728 47.558C330.884 45.144 331.989 43.257 333.043 41.897C333.326 41.5343 333.553 41.2453 333.723 41.03C333.904 40.8147 334.04 40.6673 334.131 40.588C334.618 40.112 335.117 39.874 335.627 39.874C335.786 39.874 335.888 39.8797 335.933 39.891ZM333.927 46.708L333.859 46.912C333.666 47.1953 333.349 47.4503 332.907 47.677C332.816 47.7223 332.703 47.7733 332.567 47.83C332.431 47.8867 332.267 47.9433 332.074 48C332.097 47.9207 332.233 47.8243 332.482 47.711L332.992 47.456C333.139 47.3767 333.253 47.3087 333.332 47.252C333.423 47.1953 333.479 47.1557 333.502 47.133C333.593 47.0763 333.672 47.014 333.74 46.946C333.808 46.8667 333.87 46.7873 333.927 46.708ZM330.34 47.473L330.442 47.643C330.555 47.745 330.68 47.796 330.816 47.796C330.907 47.796 331.184 47.711 331.649 47.541C331.966 47.4277 332.278 47.1897 332.584 46.827C332.89 46.4757 333.043 46.1357 333.043 45.807C333.043 45.5803 332.964 45.365 332.805 45.161C332.658 44.9457 332.476 44.838 332.261 44.838C331.91 44.838 331.524 45.195 331.105 45.909C331.094 45.9317 331.026 46.0733 330.901 46.334C330.776 46.5833 330.589 46.963 330.34 47.473ZM335.134 40.129C334.454 40.5937 333.842 41.268 333.298 42.152L331.955 44.328C332.374 44.0787 332.76 43.818 333.111 43.546C333.474 43.2627 333.814 42.9623 334.131 42.645C334.924 41.8403 335.395 41.0697 335.542 40.333C335.44 40.163 335.304 40.095 335.134 40.129ZM333.714 50.941C333.782 51.111 333.935 51.196 334.173 51.196C334.297 51.196 334.581 51.1393 335.023 51.026C335.306 50.9353 335.674 50.516 336.128 49.768C336.139 49.7567 336.445 49.2353 337.046 48.204L336.553 48.34C336.564 48.306 336.694 48.2097 336.944 48.051C337.136 47.9263 337.233 47.7903 337.233 47.643C336.632 47.881 336.213 48 335.975 48C335.635 48 335.465 47.8357 335.465 47.507C335.465 47.337 335.482 47.218 335.516 47.15L337.029 44.668C337.085 44.6113 337.176 44.583 337.301 44.583C337.346 44.583 337.391 44.5887 337.437 44.6C337.493 44.6 337.55 44.6057 337.607 44.617L335.975 47.507C336.065 47.575 336.156 47.643 336.247 47.711C336.349 47.779 336.451 47.796 336.553 47.762C337.176 47.49 337.709 47.0423 338.151 46.419C338.343 46.147 338.695 45.5237 339.205 44.549C339.216 44.5603 339.25 44.566 339.307 44.566C339.352 44.566 339.414 44.5547 339.494 44.532C339.584 44.5093 339.647 44.498 339.681 44.498C339.749 44.498 339.811 44.549 339.868 44.651C338.995 45.8183 338.36 46.8893 337.964 47.864C338.859 47.5807 339.556 47.1273 340.055 46.504C340.111 46.504 340.128 46.5493 340.106 46.64C340.094 46.6853 340.089 46.725 340.089 46.759C340.089 46.7817 340.089 46.8043 340.089 46.827C339.137 47.5297 338.338 47.9547 337.692 48.102C337.159 49.0087 336.649 49.7113 336.162 50.21C335.516 50.856 334.79 51.2923 333.986 51.519C333.827 51.485 333.668 51.451 333.51 51.417C333.34 51.383 333.255 51.2753 333.255 51.094C333.255 50.8447 333.368 50.5897 333.595 50.329C333.606 50.3177 333.668 50.2667 333.782 50.176C333.884 50.0853 334.042 49.9437 334.258 49.751C334.892 49.207 335.64 48.7423 336.502 48.357L334.7 49.496C334.008 50.1193 333.663 50.533 333.663 50.737C333.663 50.805 333.68 50.873 333.714 50.941ZM351.973 39.891L352.177 40.214C351.894 41.336 351.072 42.3787 349.712 43.342L347.927 44.6V44.668C348.177 44.6113 348.364 44.583 348.488 44.583C348.976 44.583 349.304 44.7927 349.474 45.212C349.554 45.416 349.593 45.6087 349.593 45.79C349.593 46.232 349.401 46.6457 349.015 47.031C348.619 47.405 348.199 47.643 347.757 47.745C347.055 47.915 346.624 48 346.465 48C346.159 48 345.927 47.8527 345.768 47.558C346.924 45.144 348.029 43.257 349.083 41.897C349.367 41.5343 349.593 41.2453 349.763 41.03C349.945 40.8147 350.081 40.6673 350.171 40.588C350.659 40.112 351.157 39.874 351.667 39.874C351.826 39.874 351.928 39.8797 351.973 39.891ZM349.967 46.708L349.899 46.912C349.707 47.1953 349.389 47.4503 348.947 47.677C348.857 47.7223 348.743 47.7733 348.607 47.83C348.471 47.8867 348.307 47.9433 348.114 48C348.137 47.9207 348.273 47.8243 348.522 47.711L349.032 47.456C349.18 47.3767 349.293 47.3087 349.372 47.252C349.463 47.1953 349.52 47.1557 349.542 47.133C349.633 47.0763 349.712 47.014 349.78 46.946C349.848 46.8667 349.911 46.7873 349.967 46.708ZM346.38 47.473L346.482 47.643C346.596 47.745 346.72 47.796 346.856 47.796C346.947 47.796 347.225 47.711 347.689 47.541C348.007 47.4277 348.318 47.1897 348.624 46.827C348.93 46.4757 349.083 46.1357 349.083 45.807C349.083 45.5803 349.004 45.365 348.845 45.161C348.698 44.9457 348.517 44.838 348.301 44.838C347.95 44.838 347.565 45.195 347.145 45.909C347.134 45.9317 347.066 46.0733 346.941 46.334C346.817 46.5833 346.63 46.963 346.38 47.473ZM351.174 40.129C350.494 40.5937 349.882 41.268 349.338 42.152L347.995 44.328C348.415 44.0787 348.8 43.818 349.151 43.546C349.514 43.2627 349.854 42.9623 350.171 42.645C350.965 41.8403 351.435 41.0697 351.582 40.333C351.48 40.163 351.344 40.095 351.174 40.129ZM353.664 44.668C353.721 44.6567 353.772 44.651 353.817 44.651C353.862 44.6397 353.896 44.634 353.919 44.634C354.214 44.634 354.35 44.7473 354.327 44.974C354.282 45.416 354.038 45.7617 353.596 46.011C353.471 46.0677 353.301 46.13 353.086 46.198C352.871 46.266 352.61 46.334 352.304 46.402C352.089 46.5493 351.981 46.7703 351.981 47.065C351.981 47.2123 351.998 47.3427 352.032 47.456C352.145 47.7053 352.361 47.83 352.678 47.83C352.927 47.83 353.284 47.66 353.749 47.32C353.953 47.184 354.117 46.9347 354.242 46.572C354.242 47.0933 353.789 47.524 352.882 47.864C352.576 47.966 352.344 48.017 352.185 48.017C351.834 48.017 351.618 47.881 351.539 47.609C351.505 47.4617 351.488 47.3087 351.488 47.15C351.488 46.572 351.715 46.0507 352.168 45.586C352.576 45.1553 353.075 44.8493 353.664 44.668ZM353.613 44.957C353.114 45.0477 352.712 45.45 352.406 46.164L352.542 46.232C352.848 46.164 353.114 46.0393 353.341 45.858C353.636 45.6313 353.783 45.3877 353.783 45.127C353.806 45.0703 353.794 45.025 353.749 44.991C353.715 44.957 353.67 44.9457 353.613 44.957ZM359.468 40.928C359.513 40.894 359.581 40.877 359.672 40.877C359.762 40.8883 359.842 40.8997 359.91 40.911C359.978 40.911 360.034 40.911 360.08 40.911C360.034 41.115 359.859 41.421 359.553 41.829C359.292 42.2823 359.054 42.6903 358.839 43.053C358.635 43.4043 358.453 43.716 358.295 43.988L357.207 45.756C356.969 46.1527 356.759 46.4983 356.578 46.793C356.408 47.0877 356.266 47.3313 356.153 47.524C356.107 47.6033 356.113 47.677 356.17 47.745C356.226 47.813 356.3 47.847 356.391 47.847C356.742 47.7903 357.292 47.405 358.04 46.691L357.666 47.235C357.45 47.5297 357.093 47.7563 356.595 47.915C356.334 47.9717 356.119 48 355.949 48C355.631 48 355.524 47.898 355.626 47.694C355.75 47.4107 356.022 46.895 356.442 46.147C356.872 45.399 357.462 44.4073 358.21 43.172C358.482 42.7073 358.72 42.2937 358.924 41.931C359.139 41.557 359.32 41.2227 359.468 40.928ZM360.622 46.419C360.577 46.5097 360.532 46.6117 360.486 46.725C360.441 46.827 360.39 46.946 360.333 47.082C360.356 47.2293 360.379 47.3823 360.401 47.541C360.435 47.6883 360.52 47.779 360.656 47.813C360.702 47.8583 360.781 47.8697 360.894 47.847C360.974 47.8357 361.059 47.8073 361.149 47.762C360.923 47.9207 360.656 48 360.35 48C360.146 48 360.005 47.9603 359.925 47.881C359.778 47.6657 359.704 47.4447 359.704 47.218C359.704 46.9687 359.812 46.6853 360.027 46.368C360.05 46.3227 360.112 46.2433 360.214 46.13C360.316 46.0053 360.458 45.8353 360.639 45.62C360.877 45.348 361.183 45.1043 361.557 44.889C361.977 44.6397 362.345 44.515 362.662 44.515C362.798 44.515 362.934 44.5433 363.07 44.6C363.206 44.6567 363.308 44.7077 363.376 44.753C363.444 44.7983 363.484 44.8267 363.495 44.838C363.643 44.7813 363.75 44.7473 363.818 44.736V44.974L362.305 47.473C362.283 47.575 362.3 47.6713 362.356 47.762C362.424 47.8527 362.509 47.8867 362.611 47.864C363.201 47.7393 363.784 47.4107 364.362 46.878C364.181 47.1273 363.864 47.3823 363.41 47.643C362.968 47.881 362.589 48 362.271 48C362.011 48 361.863 47.8923 361.829 47.677C361.818 47.5977 361.79 47.5467 361.744 47.524C361.676 47.49 361.591 47.5127 361.489 47.592C361.387 47.6713 361.325 47.7167 361.302 47.728C361.88 47.3087 362.487 46.436 363.121 45.11C363.042 44.9967 362.878 44.8607 362.628 44.702C362.515 44.6793 362.447 44.668 362.424 44.668C362.164 44.668 361.926 44.787 361.71 45.025C361.212 45.5577 360.849 46.0223 360.622 46.419ZM368.437 44.855C368.63 44.7303 368.84 44.668 369.066 44.668C369.395 44.668 369.616 44.8097 369.729 45.093C369.729 45.5803 369.554 46.0677 369.202 46.555C368.874 46.997 368.471 47.3483 367.995 47.609C367.519 47.8583 367.077 47.983 366.669 47.983C366.341 47.983 366.097 47.8867 365.938 47.694C365.938 47.218 366.125 46.6967 366.499 46.13C366.794 45.7107 367.015 45.3877 367.162 45.161C367.321 44.923 367.412 44.7757 367.434 44.719C367.48 44.6737 367.57 44.651 367.706 44.651C367.808 44.651 367.905 44.6793 367.995 44.736C367.406 45.62 367.111 46.062 367.111 46.062C366.805 46.572 366.579 47.048 366.431 47.49C366.579 47.694 366.777 47.796 367.026 47.796C367.174 47.796 367.372 47.7507 367.621 47.66C368.641 46.9007 369.151 46.0677 369.151 45.161C369.095 45.059 368.964 44.9797 368.76 44.923C368.704 44.9117 368.647 44.9003 368.59 44.889C368.545 44.8777 368.494 44.8663 368.437 44.855ZM368.454 48C368.568 47.7847 368.896 47.609 369.44 47.473C369.327 47.5523 369.185 47.6373 369.015 47.728C368.857 47.8073 368.67 47.898 368.454 48ZM371.193 46.963C371.454 46.6003 371.76 46.215 372.111 45.807C372.462 45.3877 372.865 44.94 373.318 44.464C373.295 44.5887 373.278 44.7303 373.267 44.889C373.256 45.0363 373.25 45.1893 373.25 45.348V45.722C373.25 45.79 373.25 45.858 373.25 45.926C373.25 45.994 373.256 46.0563 373.267 46.113C373.267 46.5437 373.222 46.878 373.131 47.116C373.029 47.4107 372.814 47.6543 372.485 47.847C372.236 47.9377 372.049 47.983 371.924 47.983C371.539 47.983 371.346 47.7563 371.346 47.303C371.346 47.1897 371.38 47.0367 371.448 46.844L371.193 46.963ZM373.454 47.354L374.168 46.708C373.907 47.0027 373.658 47.252 373.42 47.456C373.193 47.6487 372.984 47.8017 372.791 47.915C372.938 47.8017 373.159 47.6147 373.454 47.354ZM372.57 45.518L371.601 46.674L371.992 46.555C372.151 46.623 372.23 46.7193 372.23 46.844C372.23 47.014 372.117 47.116 371.89 47.15C371.72 47.1727 371.624 47.2123 371.601 47.269C371.578 47.3257 371.567 47.388 371.567 47.456C371.567 47.728 371.726 47.864 372.043 47.864C372.406 47.864 372.655 47.6317 372.791 47.167C372.836 47.031 372.859 46.878 372.859 46.708C372.859 46.3567 372.763 45.96 372.57 45.518ZM379.938 40.452L379.87 40.673L376.81 45.892C376.923 45.96 377.042 45.994 377.167 45.994C377.325 45.994 377.643 45.892 378.119 45.688C378.447 45.3933 378.612 45.1723 378.612 45.025C378.612 45.0137 378.6 44.9627 378.578 44.872C378.487 44.7587 378.453 44.6737 378.476 44.617C378.51 44.515 378.589 44.464 378.714 44.464H378.986C379.133 44.5093 379.207 44.6227 379.207 44.804C379.207 45.2347 378.918 45.552 378.34 45.756L377.235 46.147C377.371 46.249 377.501 46.5493 377.626 47.048C377.728 47.4787 377.915 47.7167 378.187 47.762C378.538 47.5807 378.878 47.3143 379.207 46.963C378.889 47.6543 378.43 48 377.83 48C377.422 48 377.195 47.745 377.15 47.235C377.093 46.861 377.053 46.64 377.031 46.572C376.951 46.3793 376.798 46.2377 376.572 46.147L375.62 47.881C375.54 47.9377 375.444 47.966 375.331 47.966C375.251 47.9547 375.183 47.949 375.127 47.949C375.07 47.9377 375.019 47.932 374.974 47.932L375.076 47.694L377.779 43.121C377.915 42.8717 378.051 42.628 378.187 42.39C378.323 42.152 378.459 41.9083 378.595 41.659C379.082 40.843 379.388 40.435 379.513 40.435C379.66 40.4463 379.768 40.452 379.836 40.452C379.904 40.452 379.938 40.452 379.938 40.452ZM381.75 46.419C381.704 46.5097 381.659 46.6117 381.614 46.725C381.568 46.827 381.517 46.946 381.461 47.082C381.483 47.2293 381.506 47.3823 381.529 47.541C381.563 47.6883 381.648 47.779 381.784 47.813C381.829 47.8583 381.908 47.8697 382.022 47.847C382.101 47.8357 382.186 47.8073 382.277 47.762C382.05 47.9207 381.784 48 381.478 48C381.274 48 381.132 47.9603 381.053 47.881C380.905 47.6657 380.832 47.4447 380.832 47.218C380.832 46.9687 380.939 46.6853 381.155 46.368C381.177 46.3227 381.24 46.2433 381.342 46.13C381.444 46.0053 381.585 45.8353 381.767 45.62C382.005 45.348 382.311 45.1043 382.685 44.889C383.104 44.6397 383.472 44.515 383.79 44.515C383.926 44.515 384.062 44.5433 384.198 44.6C384.334 44.6567 384.436 44.7077 384.504 44.753C384.572 44.7983 384.611 44.8267 384.623 44.838C384.77 44.7813 384.878 44.7473 384.946 44.736V44.974L383.433 47.473C383.41 47.575 383.427 47.6713 383.484 47.762C383.552 47.8527 383.637 47.8867 383.739 47.864C384.328 47.7393 384.912 47.4107 385.49 46.878C385.308 47.1273 384.991 47.3823 384.538 47.643C384.096 47.881 383.716 48 383.399 48C383.138 48 382.991 47.8923 382.957 47.677C382.945 47.5977 382.917 47.5467 382.872 47.524C382.804 47.49 382.719 47.5127 382.617 47.592C382.515 47.6713 382.452 47.7167 382.43 47.728C383.008 47.3087 383.614 46.436 384.249 45.11C384.169 44.9967 384.005 44.8607 383.756 44.702C383.642 44.6793 383.574 44.668 383.552 44.668C383.291 44.668 383.053 44.787 382.838 45.025C382.339 45.5577 381.976 46.0223 381.75 46.419Z" fill="black"/>
<path d="M7.164 30.084C7.164 30.828 7.236 31.368 7.38 31.704C7.524 32.04 7.8 32.268 8.208 32.388C8.64 32.508 9.312 32.568 10.224 32.568C10.296 32.568 10.332 32.64 10.332 32.784C10.332 32.928 10.296 33 10.224 33C9.504 33 8.928 32.988 8.496 32.964L5.94 32.928L3.456 32.964C3.024 32.988 2.436 33 1.692 33C1.62 33 1.584 32.928 1.584 32.784C1.584 32.64 1.62 32.568 1.692 32.568C2.604 32.568 3.264 32.508 3.672 32.388C4.104 32.268 4.392 32.04 4.536 31.704C4.704 31.344 4.788 30.804 4.788 30.084V13.416C4.788 12.696 4.704 12.168 4.536 11.832C4.392 11.496 4.104 11.268 3.672 11.148C3.264 11.004 2.604 10.932 1.692 10.932C1.62 10.932 1.584 10.86 1.584 10.716C1.584 10.572 1.62 10.5 1.692 10.5L3.456 10.536C4.464 10.584 5.292 10.608 5.94 10.608C6.66 10.608 7.524 10.584 8.532 10.536L10.224 10.5C10.296 10.5 10.332 10.572 10.332 10.716C10.332 10.86 10.296 10.932 10.224 10.932C9.336 10.932 8.676 11.004 8.244 11.148C7.812 11.292 7.524 11.544 7.38 11.904C7.236 12.24 7.164 12.768 7.164 13.488V30.084ZM1.44 7.008C1.296 7.008 1.224 6.84 1.224 6.504C1.224 6.168 1.296 6 1.44 6H10.476C10.644 6 10.728 6.168 10.728 6.504C10.728 6.84 10.644 7.008 10.476 7.008H1.44ZM20.3051 29.94C20.3051 30.708 20.4011 31.272 20.5931 31.632C20.8091 31.968 21.2051 32.208 21.7811 32.352C22.3811 32.496 23.3171 32.568 24.5891 32.568C24.6611 32.568 24.6971 32.64 24.6971 32.784C24.6971 32.928 24.6611 33 24.5891 33C23.6051 33 22.8371 32.988 22.2851 32.964L19.1531 32.928L16.7411 32.964C16.2851 32.988 15.6731 33 14.9051 33C14.8571 33 14.8331 32.928 14.8331 32.784C14.8331 32.64 14.8571 32.568 14.9051 32.568C15.8171 32.568 16.4771 32.508 16.8851 32.388C17.3171 32.268 17.6051 32.04 17.7491 31.704C17.8931 31.344 17.9651 30.804 17.9651 30.084V13.416C17.9651 12.696 17.8931 12.168 17.7491 11.832C17.6051 11.496 17.3171 11.268 16.8851 11.148C16.4771 11.004 15.8171 10.932 14.9051 10.932C14.8571 10.932 14.8331 10.86 14.8331 10.716C14.8331 10.572 14.8571 10.5 14.9051 10.5L16.7051 10.536C17.7131 10.584 18.5171 10.608 19.1171 10.608C19.7171 10.608 20.3891 10.572 21.1331 10.5C21.4211 10.5 21.8771 10.488 22.5011 10.464C23.1251 10.416 23.6651 10.392 24.1211 10.392C26.3291 10.392 28.0931 10.884 29.4131 11.868C30.7571 12.852 31.4291 14.352 31.4291 16.368C31.4291 17.952 31.0331 19.284 30.2411 20.364C29.4731 21.444 28.4771 22.248 27.2531 22.776C26.0291 23.304 24.7691 23.568 23.4731 23.568C22.7771 23.568 22.2011 23.508 21.7451 23.388C21.6731 23.388 21.6371 23.328 21.6371 23.208C21.6371 23.136 21.6491 23.064 21.6731 22.992C21.7211 22.92 21.7691 22.896 21.8171 22.92C22.2011 23.016 22.6331 23.064 23.1131 23.064C24.6971 23.064 26.0291 22.548 27.1091 21.516C28.2131 20.484 28.7651 18.996 28.7651 17.052C28.7651 15.156 28.2491 13.668 27.2171 12.588C26.1851 11.484 24.8651 10.932 23.2571 10.932C22.3931 10.932 21.7691 10.98 21.3851 11.076C21.0011 11.172 20.7251 11.4 20.5571 11.76C20.3891 12.096 20.3051 12.672 20.3051 13.488V29.94ZM40.142 22.38H49.682L49.934 23.1H39.782L40.142 22.38ZM57.962 32.568C58.058 32.568 58.106 32.64 58.106 32.784C58.106 32.928 58.058 33 57.962 33C57.506 33 56.798 32.976 55.838 32.928C54.878 32.88 54.182 32.856 53.75 32.856C53.222 32.856 52.55 32.88 51.734 32.928C50.966 32.976 50.378 33 49.97 33C49.874 33 49.826 32.928 49.826 32.784C49.826 32.64 49.874 32.568 49.97 32.568C50.882 32.568 51.53 32.484 51.914 32.316C52.322 32.148 52.526 31.848 52.526 31.416C52.526 31.056 52.382 30.552 52.094 29.904L44.102 13.02L45.002 11.904L38.018 28.428C37.682 29.244 37.514 29.916 37.514 30.444C37.514 31.86 38.69 32.568 41.042 32.568C41.162 32.568 41.222 32.64 41.222 32.784C41.222 32.928 41.162 33 41.042 33C40.61 33 39.986 32.976 39.17 32.928C38.258 32.88 37.466 32.856 36.794 32.856C36.17 32.856 35.45 32.88 34.634 32.928C33.914 32.976 33.314 33 32.834 33C32.714 33 32.654 32.928 32.654 32.784C32.654 32.64 32.714 32.568 32.834 32.568C33.506 32.568 34.07 32.448 34.526 32.208C35.006 31.944 35.45 31.5 35.858 30.876C36.29 30.228 36.758 29.304 37.262 28.104L44.858 10.176C44.906 10.104 44.99 10.068 45.11 10.068C45.23 10.068 45.302 10.104 45.326 10.176L53.822 28.068C54.638 29.844 55.334 31.044 55.91 31.668C56.486 32.268 57.17 32.568 57.962 32.568ZM64.7353 14.712C64.7353 15.648 64.9633 16.464 65.4193 17.16C65.8753 17.856 66.4273 18.444 67.0753 18.924C67.7233 19.38 68.6353 19.968 69.8113 20.688C71.0593 21.432 72.0313 22.056 72.7273 22.56C73.4233 23.064 74.0113 23.712 74.4913 24.504C74.9953 25.272 75.2473 26.196 75.2473 27.276C75.2473 28.428 74.9593 29.472 74.3833 30.408C73.8073 31.344 72.9553 32.088 71.8273 32.64C70.7233 33.168 69.3913 33.432 67.8313 33.432C65.9833 33.432 64.2913 33.012 62.7553 32.172C62.6353 32.1 62.5513 32.016 62.5033 31.92C62.4793 31.824 62.4553 31.68 62.4313 31.488L61.9633 26.592C61.9393 26.496 61.9873 26.436 62.1073 26.412C62.2513 26.388 62.3353 26.424 62.3593 26.52C62.7193 28.224 63.4273 29.712 64.4833 30.984C65.5393 32.232 66.9313 32.856 68.6593 32.856C69.8593 32.856 70.8673 32.532 71.6833 31.884C72.5233 31.212 72.9433 30.156 72.9433 28.716C72.9433 27.636 72.7033 26.7 72.2233 25.908C71.7433 25.116 71.1553 24.468 70.4593 23.964C69.7873 23.436 68.8633 22.824 67.6873 22.128C66.5353 21.432 65.6233 20.832 64.9513 20.328C64.3033 19.824 63.7513 19.188 63.2953 18.42C62.8393 17.652 62.6113 16.752 62.6113 15.72C62.6113 14.52 62.9233 13.5 63.5473 12.66C64.1953 11.796 65.0233 11.16 66.0313 10.752C67.0633 10.32 68.1553 10.104 69.3073 10.104C70.7233 10.104 72.1273 10.392 73.5193 10.968C73.8793 11.088 74.0593 11.292 74.0593 11.58L74.3113 15.684C74.3113 15.804 74.2393 15.864 74.0953 15.864C73.9753 15.864 73.9033 15.816 73.8793 15.72C73.7113 14.472 73.2073 13.32 72.3673 12.264C71.5273 11.184 70.3153 10.644 68.7313 10.644C67.3873 10.644 66.3793 11.04 65.7073 11.832C65.0593 12.6 64.7353 13.56 64.7353 14.712ZM64.5553 4.776C64.5553 4.776 64.5433 4.776 64.5193 4.776C64.5193 4.752 64.5193 4.74 64.5193 4.74C64.5193 4.692 64.5433 4.644 64.5913 4.596C64.6633 4.524 64.7233 4.5 64.7713 4.524L68.6953 6.612L72.5833 4.524H72.6193C72.6913 4.524 72.7513 4.56 72.7993 4.632C72.8473 4.704 72.8353 4.752 72.7633 4.776L69.0913 8.268C68.9953 8.364 68.8633 8.412 68.6953 8.412C68.5033 8.412 68.3593 8.364 68.2633 8.268L64.5553 4.776ZM85.8029 30.084C85.8029 30.828 85.8749 31.368 86.0189 31.704C86.1629 32.04 86.4389 32.268 86.8469 32.388C87.2789 32.508 87.9509 32.568 88.8629 32.568C88.9349 32.568 88.9709 32.64 88.9709 32.784C88.9709 32.928 88.9349 33 88.8629 33C88.1429 33 87.5669 32.988 87.1349 32.964L84.5789 32.928L82.0949 32.964C81.6629 32.988 81.0749 33 80.3309 33C80.2589 33 80.2229 32.928 80.2229 32.784C80.2229 32.64 80.2589 32.568 80.3309 32.568C81.2429 32.568 81.9029 32.508 82.3109 32.388C82.7429 32.268 83.0309 32.04 83.1749 31.704C83.3429 31.344 83.4269 30.804 83.4269 30.084V13.416C83.4269 12.696 83.3429 12.168 83.1749 11.832C83.0309 11.496 82.7429 11.268 82.3109 11.148C81.9029 11.004 81.2429 10.932 80.3309 10.932C80.2589 10.932 80.2229 10.86 80.2229 10.716C80.2229 10.572 80.2589 10.5 80.3309 10.5L82.0949 10.536C83.1029 10.584 83.9309 10.608 84.5789 10.608C85.2989 10.608 86.1629 10.584 87.1709 10.536L88.8629 10.5C88.9349 10.5 88.9709 10.572 88.9709 10.716C88.9709 10.86 88.9349 10.932 88.8629 10.932C87.9749 10.932 87.3149 11.004 86.8829 11.148C86.4509 11.292 86.1629 11.544 86.0189 11.904C85.8749 12.24 85.8029 12.768 85.8029 13.488V30.084ZM93.58 33C93.532 33 93.508 32.928 93.508 32.784C93.508 32.64 93.532 32.568 93.58 32.568C94.492 32.568 95.152 32.508 95.56 32.388C95.992 32.268 96.28 32.04 96.424 31.704C96.592 31.344 96.676 30.804 96.676 30.084V13.416C96.676 12.696 96.592 12.168 96.424 11.832C96.28 11.496 95.992 11.268 95.56 11.148C95.152 11.004 94.492 10.932 93.58 10.932C93.532 10.932 93.508 10.86 93.508 10.716C93.508 10.572 93.532 10.5 93.58 10.5H108.052C108.268 10.5 108.376 10.608 108.376 10.824L108.448 15.252C108.448 15.324 108.376 15.372 108.232 15.396C108.112 15.396 108.052 15.36 108.052 15.288C107.98 14.016 107.596 13.032 106.9 12.336C106.204 11.616 105.28 11.256 104.128 11.256H101.932C101.092 11.256 100.468 11.328 100.06 11.472C99.652 11.592 99.364 11.808 99.196 12.12C99.052 12.432 98.98 12.924 98.98 13.596V29.94C98.98 30.588 99.052 31.08 99.196 31.416C99.364 31.728 99.64 31.944 100.024 32.064C100.408 32.184 101.008 32.244 101.824 32.244H104.704C105.856 32.244 106.816 31.836 107.584 31.02C108.352 30.204 108.868 29.076 109.132 27.636C109.132 27.588 109.18 27.564 109.276 27.564C109.348 27.564 109.408 27.588 109.456 27.636C109.528 27.66 109.564 27.684 109.564 27.708C109.348 29.22 109.24 30.804 109.24 32.46C109.24 32.652 109.192 32.796 109.096 32.892C109.024 32.964 108.88 33 108.664 33H93.58ZM106.648 24.612C106.648 23.556 106.384 22.8 105.856 22.344C105.352 21.888 104.5 21.66 103.3 21.66H97.9V20.904H103.408C104.56 20.904 105.376 20.712 105.856 20.328C106.36 19.944 106.612 19.296 106.612 18.384C106.612 18.336 106.684 18.312 106.828 18.312C106.972 18.312 107.044 18.336 107.044 18.384L107.008 21.3C107.008 21.996 107.02 22.524 107.044 22.884L107.08 24.612C107.08 24.66 107.008 24.684 106.864 24.684C106.72 24.684 106.648 24.66 106.648 24.612ZM129.597 29.94C129.597 30.708 129.693 31.272 129.885 31.632C130.101 31.968 130.497 32.208 131.073 32.352C131.673 32.496 132.609 32.568 133.881 32.568C133.953 32.568 133.989 32.64 133.989 32.784C133.989 32.928 133.953 33 133.881 33C132.897 33 132.129 32.988 131.577 32.964L128.445 32.928L126.033 32.964C125.577 32.988 124.965 33 124.197 33C124.149 33 124.125 32.928 124.125 32.784C124.125 32.64 124.149 32.568 124.197 32.568C125.109 32.568 125.769 32.508 126.177 32.388C126.609 32.268 126.897 32.04 127.041 31.704C127.185 31.344 127.257 30.804 127.257 30.084V13.416C127.257 12.696 127.185 12.168 127.041 11.832C126.897 11.496 126.609 11.268 126.177 11.148C125.769 11.004 125.109 10.932 124.197 10.932C124.149 10.932 124.125 10.86 124.125 10.716C124.125 10.572 124.149 10.5 124.197 10.5L125.997 10.536C127.005 10.584 127.809 10.608 128.409 10.608C129.009 10.608 129.681 10.572 130.425 10.5C130.713 10.5 131.169 10.488 131.793 10.464C132.417 10.416 132.957 10.392 133.413 10.392C135.621 10.392 137.385 10.884 138.705 11.868C140.049 12.852 140.721 14.352 140.721 16.368C140.721 17.952 140.325 19.284 139.533 20.364C138.765 21.444 137.769 22.248 136.545 22.776C135.321 23.304 134.061 23.568 132.765 23.568C132.069 23.568 131.493 23.508 131.037 23.388C130.965 23.388 130.929 23.328 130.929 23.208C130.929 23.136 130.941 23.064 130.965 22.992C131.013 22.92 131.061 22.896 131.109 22.92C131.493 23.016 131.925 23.064 132.405 23.064C133.989 23.064 135.321 22.548 136.401 21.516C137.505 20.484 138.057 18.996 138.057 17.052C138.057 15.156 137.541 13.668 136.509 12.588C135.477 11.484 134.157 10.932 132.549 10.932C131.685 10.932 131.061 10.98 130.677 11.076C130.293 11.172 130.017 11.4 129.849 11.76C129.681 12.096 129.597 12.672 129.597 13.488V29.94ZM150.836 30.084C150.836 30.828 150.908 31.368 151.052 31.704C151.196 32.04 151.472 32.268 151.88 32.388C152.312 32.508 152.984 32.568 153.896 32.568C153.968 32.568 154.004 32.64 154.004 32.784C154.004 32.928 153.968 33 153.896 33C153.176 33 152.6 32.988 152.168 32.964L149.612 32.928L147.128 32.964C146.696 32.988 146.108 33 145.364 33C145.292 33 145.256 32.928 145.256 32.784C145.256 32.64 145.292 32.568 145.364 32.568C146.276 32.568 146.936 32.508 147.344 32.388C147.776 32.268 148.064 32.04 148.208 31.704C148.376 31.344 148.46 30.804 148.46 30.084V13.416C148.46 12.696 148.376 12.168 148.208 11.832C148.064 11.496 147.776 11.268 147.344 11.148C146.936 11.004 146.276 10.932 145.364 10.932C145.292 10.932 145.256 10.86 145.256 10.716C145.256 10.572 145.292 10.5 145.364 10.5L147.128 10.536C148.136 10.584 148.964 10.608 149.612 10.608C150.332 10.608 151.196 10.584 152.204 10.536L153.896 10.5C153.968 10.5 154.004 10.572 154.004 10.716C154.004 10.86 153.968 10.932 153.896 10.932C153.008 10.932 152.348 11.004 151.916 11.148C151.484 11.292 151.196 11.544 151.052 11.904C150.908 12.24 150.836 12.768 150.836 13.488V30.084ZM158.613 33C158.565 33 158.541 32.928 158.541 32.784C158.541 32.64 158.565 32.568 158.613 32.568C159.525 32.568 160.185 32.508 160.593 32.388C161.025 32.268 161.313 32.04 161.457 31.704C161.625 31.344 161.709 30.804 161.709 30.084V13.416C161.709 12.696 161.625 12.168 161.457 11.832C161.313 11.496 161.025 11.268 160.593 11.148C160.185 11.004 159.525 10.932 158.613 10.932C158.565 10.932 158.541 10.86 158.541 10.716C158.541 10.572 158.565 10.5 158.613 10.5H173.085C173.301 10.5 173.409 10.608 173.409 10.824L173.481 15.252C173.481 15.324 173.409 15.372 173.265 15.396C173.145 15.396 173.085 15.36 173.085 15.288C173.013 14.016 172.629 13.032 171.933 12.336C171.237 11.616 170.313 11.256 169.161 11.256H166.965C166.125 11.256 165.501 11.328 165.093 11.472C164.685 11.592 164.397 11.808 164.229 12.12C164.085 12.432 164.013 12.924 164.013 13.596V29.94C164.013 30.588 164.085 31.08 164.229 31.416C164.397 31.728 164.673 31.944 165.057 32.064C165.441 32.184 166.041 32.244 166.857 32.244H169.737C170.889 32.244 171.849 31.836 172.617 31.02C173.385 30.204 173.901 29.076 174.165 27.636C174.165 27.588 174.213 27.564 174.309 27.564C174.381 27.564 174.441 27.588 174.489 27.636C174.561 27.66 174.597 27.684 174.597 27.708C174.381 29.22 174.273 30.804 174.273 32.46C174.273 32.652 174.225 32.796 174.129 32.892C174.057 32.964 173.913 33 173.697 33H158.613ZM171.681 24.612C171.681 23.556 171.417 22.8 170.889 22.344C170.385 21.888 169.533 21.66 168.333 21.66H162.933V20.904H168.441C169.593 20.904 170.409 20.712 170.889 20.328C171.393 19.944 171.645 19.296 171.645 18.384C171.645 18.336 171.717 18.312 171.861 18.312C172.005 18.312 172.077 18.336 172.077 18.384L172.041 21.3C172.041 21.996 172.053 22.524 172.077 22.884L172.113 24.612C172.113 24.66 172.041 24.684 171.897 24.684C171.753 24.684 171.681 24.66 171.681 24.612ZM188.749 33.144C188.053 33.144 187.249 33.108 186.337 33.036C186.001 33.012 185.569 32.988 185.041 32.964C184.537 32.94 183.973 32.928 183.349 32.928L180.901 32.964C180.469 32.988 179.869 33 179.101 33C179.053 33 179.029 32.928 179.029 32.784C179.029 32.64 179.053 32.568 179.101 32.568C180.013 32.568 180.673 32.508 181.081 32.388C181.513 32.268 181.801 32.04 181.945 31.704C182.113 31.344 182.197 30.804 182.197 30.084V13.416C182.197 12.696 182.125 12.168 181.981 11.832C181.837 11.496 181.549 11.268 181.117 11.148C180.709 11.004 180.049 10.932 179.137 10.932C179.089 10.932 179.065 10.86 179.065 10.716C179.065 10.572 179.089 10.5 179.137 10.5L180.937 10.536C181.945 10.584 182.749 10.608 183.349 10.608C184.261 10.608 185.161 10.572 186.049 10.5C187.105 10.452 187.837 10.428 188.245 10.428C190.741 10.428 192.949 10.908 194.869 11.868C196.789 12.828 198.277 14.136 199.333 15.792C200.413 17.448 200.953 19.308 200.953 21.372C200.953 23.7 200.401 25.764 199.297 27.564C198.217 29.34 196.741 30.72 194.869 31.704C192.997 32.664 190.957 33.144 188.749 33.144ZM188.389 32.604C190.309 32.604 192.013 32.208 193.501 31.416C194.989 30.6 196.141 29.412 196.957 27.852C197.797 26.268 198.217 24.372 198.217 22.164C198.217 20.076 197.821 18.18 197.029 16.476C196.237 14.772 195.109 13.428 193.645 12.444C192.181 11.46 190.489 10.968 188.569 10.968C187.537 10.968 186.733 11.028 186.157 11.148C185.605 11.268 185.197 11.508 184.933 11.868C184.669 12.228 184.537 12.768 184.537 13.488V29.688C184.537 30.408 184.633 30.972 184.825 31.38C185.041 31.788 185.425 32.1 185.977 32.316C186.553 32.508 187.357 32.604 188.389 32.604ZM211.094 22.38H220.634L220.886 23.1H210.734L211.094 22.38ZM228.914 32.568C229.01 32.568 229.058 32.64 229.058 32.784C229.058 32.928 229.01 33 228.914 33C228.458 33 227.75 32.976 226.79 32.928C225.83 32.88 225.134 32.856 224.702 32.856C224.174 32.856 223.502 32.88 222.686 32.928C221.918 32.976 221.33 33 220.922 33C220.826 33 220.778 32.928 220.778 32.784C220.778 32.64 220.826 32.568 220.922 32.568C221.834 32.568 222.482 32.484 222.866 32.316C223.274 32.148 223.478 31.848 223.478 31.416C223.478 31.056 223.334 30.552 223.046 29.904L215.054 13.02L215.954 11.904L208.97 28.428C208.634 29.244 208.466 29.916 208.466 30.444C208.466 31.86 209.642 32.568 211.994 32.568C212.114 32.568 212.174 32.64 212.174 32.784C212.174 32.928 212.114 33 211.994 33C211.562 33 210.938 32.976 210.122 32.928C209.21 32.88 208.418 32.856 207.746 32.856C207.122 32.856 206.402 32.88 205.586 32.928C204.866 32.976 204.266 33 203.786 33C203.666 33 203.606 32.928 203.606 32.784C203.606 32.64 203.666 32.568 203.786 32.568C204.458 32.568 205.022 32.448 205.478 32.208C205.958 31.944 206.402 31.5 206.81 30.876C207.242 30.228 207.71 29.304 208.214 28.104L215.81 10.176C215.858 10.104 215.942 10.068 216.062 10.068C216.182 10.068 216.254 10.104 216.278 10.176L224.774 28.068C225.59 29.844 226.286 31.044 226.862 31.668C227.438 32.268 228.122 32.568 228.914 32.568ZM211.49 7.008C211.346 7.008 211.274 6.84 211.274 6.504C211.274 6.168 211.346 6 211.49 6H220.526C220.694 6 220.778 6.168 220.778 6.504C220.778 6.84 220.694 7.008 220.526 7.008H211.49ZM251.739 10.5C251.811 10.5 251.847 10.572 251.847 10.716C251.847 10.86 251.811 10.932 251.739 10.932C250.923 10.932 250.215 11.148 249.615 11.58C249.015 12.012 248.511 12.744 248.103 13.776L240.435 32.964C240.411 33.06 240.279 33.108 240.039 33.108C239.847 33.108 239.715 33.06 239.643 32.964L230.679 13.488C230.271 12.552 229.839 11.892 229.383 11.508C228.927 11.124 228.339 10.932 227.619 10.932C227.547 10.932 227.511 10.86 227.511 10.716C227.511 10.572 227.547 10.5 227.619 10.5L228.987 10.536C229.659 10.584 230.199 10.608 230.607 10.608C231.543 10.608 232.563 10.584 233.667 10.536L235.179 10.5C235.251 10.5 235.287 10.572 235.287 10.716C235.287 10.86 235.251 10.932 235.179 10.932C233.691 10.932 232.947 11.34 232.947 12.156C232.947 12.468 233.055 12.864 233.271 13.344L241.047 30.372L239.931 32.028L247.275 13.56C247.467 13.104 247.563 12.72 247.563 12.408C247.563 11.904 247.335 11.532 246.879 11.292C246.423 11.052 245.715 10.932 244.755 10.932C244.683 10.932 244.647 10.86 244.647 10.716C244.647 10.572 244.683 10.5 244.755 10.5L246.303 10.536C247.119 10.584 247.863 10.608 248.535 10.608C249.039 10.608 249.603 10.584 250.227 10.536L251.739 10.5ZM257.357 22.38H266.897L267.149 23.1H256.997L257.357 22.38ZM275.177 32.568C275.273 32.568 275.321 32.64 275.321 32.784C275.321 32.928 275.273 33 275.177 33C274.721 33 274.013 32.976 273.053 32.928C272.093 32.88 271.397 32.856 270.965 32.856C270.437 32.856 269.765 32.88 268.949 32.928C268.181 32.976 267.593 33 267.185 33C267.089 33 267.041 32.928 267.041 32.784C267.041 32.64 267.089 32.568 267.185 32.568C268.097 32.568 268.745 32.484 269.129 32.316C269.537 32.148 269.741 31.848 269.741 31.416C269.741 31.056 269.597 30.552 269.309 29.904L261.317 13.02L262.217 11.904L255.233 28.428C254.897 29.244 254.729 29.916 254.729 30.444C254.729 31.86 255.905 32.568 258.257 32.568C258.377 32.568 258.437 32.64 258.437 32.784C258.437 32.928 258.377 33 258.257 33C257.825 33 257.201 32.976 256.385 32.928C255.473 32.88 254.681 32.856 254.009 32.856C253.385 32.856 252.665 32.88 251.849 32.928C251.129 32.976 250.529 33 250.049 33C249.929 33 249.869 32.928 249.869 32.784C249.869 32.64 249.929 32.568 250.049 32.568C250.721 32.568 251.285 32.448 251.741 32.208C252.221 31.944 252.665 31.5 253.073 30.876C253.505 30.228 253.973 29.304 254.477 28.104L262.073 10.176C262.121 10.104 262.205 10.068 262.325 10.068C262.445 10.068 262.517 10.104 262.541 10.176L271.037 28.068C271.853 29.844 272.549 31.044 273.125 31.668C273.701 32.268 274.385 32.568 275.177 32.568ZM257.753 7.008C257.609 7.008 257.537 6.84 257.537 6.504C257.537 6.168 257.609 6 257.753 6H266.789C266.957 6 267.041 6.168 267.041 6.504C267.041 6.84 266.957 7.008 266.789 7.008H257.753ZM284.038 30.588C284.038 32.532 283.87 34.092 283.534 35.268C283.222 36.468 282.694 37.44 281.95 38.184C281.206 38.928 280.138 39.6 278.746 40.2L278.71 40.236C278.662 40.236 278.602 40.176 278.53 40.056C278.482 39.936 278.482 39.864 278.53 39.84C279.706 39.168 280.522 38.16 280.978 36.816C281.458 35.496 281.698 33.744 281.698 31.56V13.416C281.698 12.696 281.614 12.168 281.446 11.832C281.302 11.496 281.014 11.268 280.582 11.148C280.15 11.004 279.478 10.932 278.566 10.932C278.518 10.932 278.494 10.86 278.494 10.716C278.494 10.572 278.518 10.5 278.566 10.5L280.438 10.536C281.446 10.584 282.238 10.608 282.814 10.608C283.438 10.608 284.206 10.584 285.118 10.536L286.702 10.5C286.75 10.5 286.774 10.572 286.774 10.716C286.774 10.86 286.75 10.932 286.702 10.932C285.91 10.932 285.334 11.004 284.974 11.148C284.614 11.292 284.362 11.544 284.218 11.904C284.098 12.24 284.038 12.768 284.038 13.488V30.588ZM310.474 13.488C310.474 12.768 310.39 12.24 310.222 11.904C310.078 11.544 309.79 11.292 309.358 11.148C308.95 11.004 308.29 10.932 307.378 10.932C307.306 10.932 307.27 10.86 307.27 10.716C307.27 10.572 307.306 10.5 307.378 10.5L309.106 10.536C310.162 10.584 311.002 10.608 311.626 10.608C312.25 10.608 313.066 10.584 314.074 10.536L315.838 10.5C315.91 10.5 315.946 10.572 315.946 10.716C315.946 10.86 315.91 10.932 315.838 10.932C314.926 10.932 314.254 11.004 313.822 11.148C313.414 11.268 313.126 11.496 312.958 11.832C312.814 12.168 312.742 12.696 312.742 13.416V30.084C312.742 30.804 312.814 31.344 312.958 31.704C313.126 32.04 313.414 32.268 313.822 32.388C314.254 32.508 314.926 32.568 315.838 32.568C315.91 32.568 315.946 32.64 315.946 32.784C315.946 32.928 315.91 33 315.838 33L312.994 32.964L311.122 33C310.834 33 310.654 32.964 310.582 32.892C310.51 32.82 310.474 32.628 310.474 32.316V13.488ZM311.878 28.14C310.03 30.012 308.314 31.368 306.73 32.208C305.17 33.024 303.466 33.432 301.618 33.432C300.106 33.432 298.738 33.144 297.514 32.568C296.314 31.992 295.366 31.164 294.67 30.084C293.998 29.004 293.662 27.744 293.662 26.304V13.416C293.662 12.696 293.59 12.168 293.446 11.832C293.302 11.496 293.014 11.268 292.582 11.148C292.174 11.004 291.514 10.932 290.602 10.932C290.53 10.932 290.494 10.86 290.494 10.716C290.494 10.572 290.53 10.5 290.602 10.5L292.366 10.536C293.374 10.584 294.178 10.608 294.778 10.608C295.45 10.608 296.314 10.584 297.37 10.536L299.062 10.5C299.11 10.5 299.134 10.572 299.134 10.716C299.134 10.86 299.11 10.932 299.062 10.932C298.174 10.932 297.514 11.004 297.082 11.148C296.65 11.292 296.35 11.544 296.182 11.904C296.038 12.24 295.966 12.768 295.966 13.488V25.044C295.966 27.444 296.554 29.28 297.73 30.552C298.93 31.8 300.55 32.424 302.59 32.424C304.126 32.424 305.578 32.076 306.946 31.38C308.338 30.684 309.862 29.508 311.518 27.852L311.878 28.14ZM323.243 11.328L324.107 11.4L323.747 29.076C323.723 30.348 323.939 31.248 324.395 31.776C324.851 32.304 325.655 32.568 326.807 32.568C326.855 32.568 326.879 32.64 326.879 32.784C326.879 32.928 326.855 33 326.807 33C326.135 33 325.619 32.988 325.259 32.964L323.315 32.928L321.443 32.964C321.107 32.988 320.627 33 320.003 33C319.955 33 319.931 32.928 319.931 32.784C319.931 32.64 319.955 32.568 320.003 32.568C321.011 32.568 321.731 32.304 322.163 31.776C322.619 31.224 322.859 30.324 322.883 29.076L323.243 11.328ZM347.831 32.568C347.903 32.568 347.939 32.64 347.939 32.784C347.939 32.928 347.903 33 347.831 33C347.087 33 346.499 32.988 346.067 32.964L343.583 32.928L341.279 32.964C340.895 32.988 340.355 33 339.659 33C339.611 33 339.587 32.928 339.587 32.784C339.587 32.64 339.611 32.568 339.659 32.568C340.475 32.568 341.075 32.508 341.459 32.388C341.867 32.244 342.131 32.004 342.251 31.668C342.395 31.332 342.443 30.804 342.395 30.084L341.711 12.696L342.899 11.04L333.539 32.748C333.491 32.844 333.395 32.892 333.251 32.892C333.131 32.892 333.023 32.844 332.927 32.748L323.891 13.488C323.483 12.6 322.979 11.952 322.379 11.544C321.803 11.136 321.095 10.932 320.255 10.932C320.207 10.932 320.183 10.86 320.183 10.716C320.183 10.572 320.207 10.5 320.255 10.5L321.587 10.536C321.827 10.56 322.163 10.572 322.595 10.572C323.027 10.572 323.387 10.56 323.675 10.536C323.987 10.512 324.227 10.5 324.395 10.5C324.707 10.5 324.959 10.62 325.151 10.86C325.367 11.076 325.667 11.58 326.051 12.372L334.259 29.652L333.143 31.524L341.927 11.4C342.191 10.8 342.551 10.5 343.007 10.5C343.127 10.5 343.295 10.512 343.511 10.536C343.751 10.56 344.063 10.572 344.447 10.572L346.139 10.536C346.403 10.512 346.799 10.5 347.327 10.5C347.375 10.5 347.399 10.572 347.399 10.716C347.399 10.86 347.375 10.932 347.327 10.932C346.103 10.932 345.227 11.112 344.699 11.472C344.195 11.808 343.967 12.456 344.015 13.416L344.735 30.084C344.759 30.828 344.843 31.368 344.987 31.704C345.155 32.04 345.443 32.268 345.851 32.388C346.259 32.508 346.919 32.568 347.831 32.568ZM357.261 30.084C357.261 30.828 357.333 31.368 357.477 31.704C357.621 32.04 357.897 32.268 358.305 32.388C358.737 32.508 359.409 32.568 360.321 32.568C360.393 32.568 360.429 32.64 360.429 32.784C360.429 32.928 360.393 33 360.321 33C359.601 33 359.025 32.988 358.593 32.964L356.037 32.928L353.553 32.964C353.121 32.988 352.533 33 351.789 33C351.717 33 351.681 32.928 351.681 32.784C351.681 32.64 351.717 32.568 351.789 32.568C352.701 32.568 353.361 32.508 353.769 32.388C354.201 32.268 354.489 32.04 354.633 31.704C354.801 31.344 354.885 30.804 354.885 30.084V13.416C354.885 12.696 354.801 12.168 354.633 11.832C354.489 11.496 354.201 11.268 353.769 11.148C353.361 11.004 352.701 10.932 351.789 10.932C351.717 10.932 351.681 10.86 351.681 10.716C351.681 10.572 351.717 10.5 351.789 10.5L353.553 10.536C354.561 10.584 355.389 10.608 356.037 10.608C356.757 10.608 357.621 10.584 358.629 10.536L360.321 10.5C360.393 10.5 360.429 10.572 360.429 10.716C360.429 10.86 360.393 10.932 360.321 10.932C359.433 10.932 358.773 11.004 358.341 11.148C357.909 11.292 357.621 11.544 357.477 11.904C357.333 12.24 357.261 12.768 357.261 13.488V30.084Z" fill="black"/>
<path d="M598 48L390 48" stroke="black" stroke-opacity="0.3"/>
</svg>
