<svg width="91" height="52" viewBox="0 0 91 52" fill="none" xmlns="http://www.w3.org/2000/svg">
<path d="M35.933 28.891L36.137 29.214C35.967 29.86 35.6667 30.438 35.236 30.948C34.8053 31.4467 34.2783 31.917 33.655 32.359C33.043 32.7897 32.4537 33.2033 31.887 33.6V33.668C31.9777 33.6453 32.074 33.6283 32.176 33.617C32.278 33.5943 32.3687 33.583 32.448 33.583C32.6633 33.583 32.856 33.634 33.026 33.736C33.2073 33.838 33.3377 34.0023 33.417 34.229C33.5077 34.4443 33.553 34.6313 33.553 34.79C33.553 35.266 33.3433 35.691 32.924 36.065C32.516 36.4277 32.108 36.66 31.7 36.762C31.3033 36.8527 31.02 36.915 30.85 36.949C30.6913 36.983 30.5497 37 30.425 37C30.255 37 30.1133 36.9717 30 36.915C29.898 36.847 29.8017 36.728 29.711 36.558C30.323 35.2887 30.8727 34.229 31.36 33.379C31.8587 32.529 32.4197 31.7073 33.043 30.914C33.6663 30.1093 34.1423 29.571 34.471 29.299C34.7997 29.0157 35.185 28.874 35.627 28.874C35.763 28.874 35.865 28.8797 35.933 28.891ZM33.927 35.708C33.9043 35.776 33.8817 35.844 33.859 35.912C33.757 36.0707 33.6097 36.218 33.417 36.354C33.2357 36.49 33.06 36.6033 32.89 36.694C32.7313 36.7733 32.4593 36.8753 32.074 37C32.108 36.9093 32.227 36.8243 32.431 36.745C32.6463 36.6543 32.8333 36.5637 32.992 36.473C33.1507 36.371 33.315 36.2633 33.485 36.15C33.6663 36.0367 33.8137 35.8893 33.927 35.708ZM30.34 36.473L30.442 36.643C30.5667 36.745 30.6913 36.796 30.816 36.796C30.8727 36.796 30.9633 36.779 31.088 36.745C31.2127 36.6997 31.3997 36.6317 31.649 36.541C31.8983 36.4503 32.193 36.2293 32.533 35.878C32.873 35.5267 33.043 35.1697 33.043 34.807C33.043 34.5803 32.9637 34.365 32.805 34.161C32.6463 33.9457 32.465 33.838 32.261 33.838C31.8643 33.838 31.4903 34.1837 31.139 34.875C30.7877 35.5663 30.5213 36.099 30.34 36.473ZM35.134 29.129C34.4653 29.5823 33.8533 30.2567 33.298 31.152C32.7427 32.0473 32.295 32.7727 31.955 33.328C32.7597 32.852 33.519 32.257 34.233 31.543C34.947 30.8177 35.3833 30.081 35.542 29.333C35.44 29.163 35.304 29.095 35.134 29.129ZM33.6966 39.958C33.7306 40.0487 33.7872 40.111 33.8666 40.145C33.9459 40.1903 34.0422 40.213 34.1556 40.213C34.2689 40.213 34.3709 40.2017 34.4616 40.179C34.5409 40.1563 34.7222 40.1053 35.0056 40.026C35.2889 39.958 35.6176 39.6123 35.9916 38.989C36.3656 38.377 36.7169 37.7877 37.0456 37.221L36.5526 37.357C36.5866 37.3003 36.7056 37.2097 36.9096 37.085C37.1249 36.9603 37.2326 36.813 37.2326 36.643C36.9039 36.779 36.6546 36.8753 36.4846 36.932C36.3146 36.9887 36.1446 37.017 35.9746 37.017C35.7252 37.017 35.5779 36.9603 35.5326 36.847C35.4759 36.7337 35.4476 36.6203 35.4476 36.507C35.4476 36.405 35.4532 36.3313 35.4646 36.286C35.4646 36.2407 35.4759 36.1953 35.4986 36.15L37.0286 33.668C37.0852 33.6113 37.1759 33.583 37.3006 33.583C37.3912 33.583 37.4932 33.5943 37.6066 33.617C37.0626 34.5803 36.5186 35.5437 35.9746 36.507C35.9972 36.5183 36.0709 36.575 36.1956 36.677C36.3202 36.7677 36.4392 36.796 36.5526 36.762C37.1759 36.49 37.6462 36.133 37.9636 35.691C38.2809 35.2377 38.6946 34.5237 39.2046 33.549C39.2612 33.583 39.3462 33.583 39.4596 33.549C39.5729 33.515 39.6466 33.498 39.6806 33.498C39.7599 33.498 39.8222 33.549 39.8676 33.651C39.4822 34.1723 39.1196 34.7163 38.7796 35.283C38.4396 35.8383 38.1676 36.3653 37.9636 36.864C38.3829 36.728 38.7682 36.5523 39.1196 36.337C39.4822 36.1103 39.7939 35.8327 40.0546 35.504C40.0999 35.504 40.1169 35.5493 40.1056 35.64C40.0942 35.7307 40.0886 35.793 40.0886 35.827C39.5786 36.201 39.1592 36.4843 38.8306 36.677C38.5132 36.8583 38.1336 37.0057 37.6916 37.119C37.1589 38.0257 36.6149 38.7623 36.0596 39.329C35.5042 39.8957 34.8072 40.298 33.9686 40.536C33.8099 40.502 33.6512 40.4737 33.4926 40.451C33.3226 40.4057 33.2376 40.2923 33.2376 40.111C33.2376 39.8843 33.2886 39.703 33.3906 39.567C33.4926 39.4423 33.7816 39.176 34.2576 38.768C34.7222 38.36 35.1019 38.071 35.3966 37.901C35.6912 37.7423 36.0596 37.5667 36.5016 37.374C35.9009 37.748 35.2946 38.1277 34.6826 38.513C34.2292 38.921 33.9459 39.193 33.8326 39.329C33.7079 39.4763 33.6456 39.618 33.6456 39.754C33.6456 39.822 33.6626 39.89 33.6966 39.958ZM53.6004 28.891L53.8044 29.214C53.6344 29.86 53.3341 30.438 52.9034 30.948C52.4727 31.4467 51.9457 31.917 51.3224 32.359C50.7104 32.7897 50.1211 33.2033 49.5544 33.6V33.668C49.645 33.6453 49.7414 33.6283 49.8434 33.617C49.9454 33.5943 50.0361 33.583 50.1154 33.583C50.3307 33.583 50.5234 33.634 50.6934 33.736C50.8747 33.838 51.005 34.0023 51.0844 34.229C51.175 34.4443 51.2204 34.6313 51.2204 34.79C51.2204 35.266 51.0107 35.691 50.5914 36.065C50.1834 36.4277 49.7754 36.66 49.3674 36.762C48.9707 36.8527 48.6874 36.915 48.5174 36.949C48.3587 36.983 48.217 37 48.0924 37C47.9224 37 47.7807 36.9717 47.6674 36.915C47.5654 36.847 47.469 36.728 47.3784 36.558C47.9904 35.2887 48.54 34.229 49.0274 33.379C49.526 32.529 50.087 31.7073 50.7104 30.914C51.3337 30.1093 51.8097 29.571 52.1384 29.299C52.4671 29.0157 52.8524 28.874 53.2944 28.874C53.4304 28.874 53.5324 28.8797 53.6004 28.891ZM51.5944 35.708C51.5717 35.776 51.5491 35.844 51.5264 35.912C51.4244 36.0707 51.277 36.218 51.0844 36.354C50.903 36.49 50.7274 36.6033 50.5574 36.694C50.3987 36.7733 50.1267 36.8753 49.7414 37C49.7754 36.9093 49.8944 36.8243 50.0984 36.745C50.3137 36.6543 50.5007 36.5637 50.6594 36.473C50.8181 36.371 50.9824 36.2633 51.1524 36.15C51.3337 36.0367 51.4811 35.8893 51.5944 35.708ZM48.0074 36.473L48.1094 36.643C48.234 36.745 48.3587 36.796 48.4834 36.796C48.54 36.796 48.6307 36.779 48.7554 36.745C48.88 36.6997 49.067 36.6317 49.3164 36.541C49.5657 36.4503 49.8604 36.2293 50.2004 35.878C50.5404 35.5267 50.7104 35.1697 50.7104 34.807C50.7104 34.5803 50.631 34.365 50.4724 34.161C50.3137 33.9457 50.1324 33.838 49.9284 33.838C49.5317 33.838 49.1577 34.1837 48.8064 34.875C48.455 35.5663 48.1887 36.099 48.0074 36.473ZM52.8014 29.129C52.1327 29.5823 51.5207 30.2567 50.9654 31.152C50.4101 32.0473 49.9624 32.7727 49.6224 33.328C50.427 32.852 51.1864 32.257 51.9004 31.543C52.6144 30.8177 53.0507 30.081 53.2094 29.333C53.1074 29.163 52.9714 29.095 52.8014 29.129ZM55.291 33.668C55.4043 33.6453 55.4893 33.634 55.546 33.634C55.852 33.634 55.988 33.7473 55.954 33.974C55.8973 34.484 55.648 34.8297 55.206 35.011C54.764 35.181 54.339 35.3113 53.931 35.402C53.8176 35.4813 53.7326 35.5777 53.676 35.691C53.6306 35.793 53.608 35.9177 53.608 36.065C53.608 36.201 53.625 36.3313 53.659 36.456C53.7723 36.7053 53.9876 36.83 54.305 36.83C54.373 36.83 54.5146 36.7847 54.73 36.694C54.9453 36.6033 55.1606 36.4787 55.376 36.32C55.5913 36.1613 55.7556 35.912 55.869 35.572C55.869 35.8553 55.716 36.116 55.41 36.354C55.1153 36.5807 54.815 36.7507 54.509 36.864C54.203 36.9773 53.9706 37.034 53.812 37.034C53.642 37.034 53.5003 37.0057 53.387 36.949C53.2736 36.881 53.2 36.7677 53.166 36.609C53.1206 36.4503 53.098 36.2973 53.098 36.15C53.098 35.5947 53.3133 35.0903 53.744 34.637C54.186 34.1723 54.7016 33.8493 55.291 33.668ZM55.24 33.957C54.9453 34.0023 54.7016 34.1327 54.509 34.348C54.3276 34.5633 54.169 34.8353 54.033 35.164L54.169 35.232C54.4636 35.164 54.7413 35.028 55.002 34.824C55.274 34.62 55.41 34.3877 55.41 34.127C55.4213 34.093 55.4156 34.0533 55.393 34.008C55.3703 33.9627 55.3193 33.9457 55.24 33.957ZM61.0946 29.928C61.1513 29.894 61.2193 29.877 61.2986 29.877C61.4913 29.8997 61.6273 29.911 61.7066 29.911C61.6613 30.0923 61.5876 30.2567 61.4856 30.404C61.3836 30.5513 61.2816 30.693 61.1796 30.829C60.6696 31.7243 60.2446 32.444 59.9046 32.988C59.5759 33.532 59.2189 34.1213 58.8336 34.756C58.4483 35.3907 58.0969 35.98 57.7796 36.524C57.7456 36.592 57.7456 36.6657 57.7796 36.745C57.8249 36.813 57.9043 36.847 58.0176 36.847C58.3009 36.813 58.5843 36.6713 58.8676 36.422C59.1509 36.1727 59.4173 35.929 59.6666 35.691C59.5193 35.9063 59.3946 36.0877 59.2926 36.235C59.1906 36.3823 59.0433 36.5183 58.8506 36.643C58.6579 36.7563 58.4426 36.847 58.2046 36.915C57.9779 36.983 57.7683 37.017 57.5756 37.017C57.4623 37.017 57.3603 37 57.2696 36.966C57.1789 36.932 57.1676 36.8413 57.2356 36.694C57.4509 36.2293 57.7966 35.589 58.2726 34.773C58.7599 33.957 59.2756 33.09 59.8196 32.172C60.3749 31.254 60.7999 30.506 61.0946 29.928ZM62.6404 34.841C62.4704 35.0677 62.3401 35.266 62.2494 35.436C62.1587 35.5947 62.0624 35.81 61.9604 36.082C62.0057 36.4107 62.0397 36.609 62.0624 36.677C62.0851 36.7337 62.1587 36.779 62.2834 36.813C62.3401 36.8583 62.4194 36.8697 62.5214 36.847C62.6234 36.8243 62.7084 36.796 62.7764 36.762C62.5611 36.9207 62.2947 37 61.9774 37C61.7847 37 61.6431 36.9603 61.5524 36.881C61.3937 36.6543 61.3144 36.4333 61.3144 36.218C61.3144 35.9347 61.4277 35.6513 61.6544 35.368C61.8924 35.0733 62.0964 34.8297 62.2664 34.637C62.4364 34.433 62.7254 34.195 63.1334 33.923C63.5527 33.651 63.9381 33.515 64.2894 33.515C64.5387 33.515 64.7314 33.5717 64.8674 33.685C65.0034 33.787 65.0884 33.838 65.1224 33.838C65.2584 33.7813 65.3661 33.7473 65.4454 33.736V33.974L63.9324 36.473C63.9097 36.575 63.9324 36.6713 64.0004 36.762C64.0684 36.8527 64.1477 36.8867 64.2384 36.864C64.6351 36.7847 64.9694 36.6487 65.2414 36.456C65.5247 36.2633 65.7741 36.0707 65.9894 35.878C65.7967 36.1387 65.4737 36.3937 65.0204 36.643C64.5784 36.881 64.2044 37 63.8984 37C63.7284 37 63.6151 36.9717 63.5584 36.915C63.5017 36.847 63.4621 36.7733 63.4394 36.694C63.4281 36.6033 63.4054 36.5467 63.3714 36.524C63.2921 36.49 63.2071 36.5127 63.1164 36.592C63.0257 36.6713 62.9634 36.7167 62.9294 36.728C63.3261 36.4447 63.6491 36.099 63.8984 35.691C64.1591 35.2717 64.4424 34.7447 64.7484 34.11C64.6464 33.9967 64.5614 33.906 64.4934 33.838C64.4254 33.77 64.3461 33.7247 64.2554 33.702C64.1647 33.6793 64.0967 33.668 64.0514 33.668C63.7907 33.668 63.5471 33.787 63.3204 34.025C63.1051 34.263 62.8784 34.535 62.6404 34.841ZM70.0642 33.855C70.2569 33.7303 70.4666 33.668 70.6932 33.668C70.8406 33.668 70.9709 33.702 71.0842 33.77C71.1976 33.8267 71.2882 33.9343 71.3562 34.093C71.3562 34.671 71.1522 35.1867 70.7442 35.64C70.3476 36.0933 69.9792 36.4107 69.6392 36.592C69.2992 36.7733 69.0329 36.8867 68.8402 36.932C68.6476 36.966 68.4662 36.983 68.2962 36.983C68.1262 36.983 67.9846 36.966 67.8712 36.932C67.7579 36.8867 67.6502 36.8073 67.5482 36.694C67.5482 36.1727 67.7806 35.589 68.2452 34.943C68.7099 34.297 68.9819 33.889 69.0612 33.719C69.1179 33.6737 69.2086 33.651 69.3332 33.651C69.4466 33.651 69.5429 33.6793 69.6222 33.736C69.3956 34.076 69.1122 34.501 68.7722 35.011C68.4436 35.521 68.2056 36.014 68.0582 36.49C68.1376 36.6033 68.2226 36.6827 68.3132 36.728C68.4152 36.7733 68.5286 36.796 68.6532 36.796C68.7439 36.796 68.8176 36.7903 68.8742 36.779C68.9422 36.7677 69.0669 36.728 69.2482 36.66C69.7129 36.3087 70.0812 35.9233 70.3532 35.504C70.6366 35.0733 70.7782 34.6257 70.7782 34.161C70.7102 34.0363 70.5742 33.957 70.3702 33.923C70.1776 33.889 70.0756 33.8663 70.0642 33.855ZM70.0812 37C70.1492 36.8753 70.2852 36.7677 70.4892 36.677C70.6932 36.5863 70.8859 36.5183 71.0672 36.473C70.7159 36.6883 70.4892 36.8243 70.3872 36.881C70.2852 36.9377 70.1832 36.9773 70.0812 37ZM72.8199 35.963C73.0919 35.589 73.4149 35.181 73.7889 34.739C74.1743 34.297 74.5596 33.872 74.9449 33.464C74.8996 33.7247 74.8769 34.0193 74.8769 34.348C74.8769 34.4727 74.8769 34.603 74.8769 34.739C74.8769 34.8637 74.8826 34.9883 74.8939 35.113C74.8939 35.5437 74.8429 35.895 74.7409 36.167C74.6503 36.4277 74.4406 36.6543 74.1119 36.847C74.0213 36.881 73.9249 36.915 73.8229 36.949C73.7323 36.9717 73.6416 36.983 73.5509 36.983C73.4149 36.983 73.2846 36.9377 73.1599 36.847C73.0353 36.745 72.9729 36.5637 72.9729 36.303C72.9729 36.1783 73.0069 36.0253 73.0749 35.844L72.8199 35.963ZM75.0809 36.354L75.7949 35.708C75.5683 35.9687 75.3416 36.2067 75.1149 36.422C74.8883 36.626 74.6559 36.7903 74.4179 36.915C74.4973 36.8357 74.5936 36.7507 74.7069 36.66C74.8316 36.558 74.9563 36.456 75.0809 36.354ZM74.1969 34.518L73.2279 35.674L73.6189 35.555C73.7776 35.623 73.8569 35.7193 73.8569 35.844C73.8569 35.8893 73.8399 35.946 73.8059 36.014C73.7719 36.082 73.6699 36.1273 73.4999 36.15C73.3413 36.1727 73.2449 36.2067 73.2109 36.252C73.1769 36.3993 73.1769 36.5127 73.2109 36.592C73.2449 36.6713 73.3073 36.7393 73.3979 36.796C73.4886 36.8413 73.5793 36.864 73.6699 36.864C73.8739 36.864 74.0383 36.7903 74.1629 36.643C74.2876 36.4843 74.3726 36.3257 74.4179 36.167C74.4633 36.0083 74.4859 35.8553 74.4859 35.708C74.4859 35.4927 74.4633 35.3 74.4179 35.13C74.3726 34.9487 74.2989 34.7447 74.1969 34.518ZM81.5646 29.452L81.4966 29.673C80.4766 31.4183 79.4566 33.158 78.4366 34.892C78.5613 34.96 78.6803 34.994 78.7936 34.994C78.9296 34.994 79.0826 34.96 79.2526 34.892C79.4226 34.824 79.5869 34.756 79.7456 34.688C79.8589 34.586 79.9666 34.4783 80.0686 34.365C80.1819 34.2517 80.2386 34.1383 80.2386 34.025C80.2386 33.991 80.2273 33.94 80.2046 33.872C80.1139 33.7587 80.0799 33.6737 80.1026 33.617C80.1366 33.515 80.2159 33.464 80.3406 33.464C80.4313 33.464 80.5219 33.464 80.6126 33.464C80.7599 33.5207 80.8336 33.634 80.8336 33.804C80.8336 33.906 80.7826 34.059 80.6806 34.263C80.5899 34.4557 80.3519 34.62 79.9666 34.756C79.5813 34.892 79.2129 35.0223 78.8616 35.147C79.0316 35.2717 79.1563 35.5607 79.2356 36.014C79.3263 36.456 79.5189 36.7053 79.8136 36.762C80.0063 36.66 80.1876 36.541 80.3576 36.405C80.5276 36.269 80.6863 36.1217 80.8336 35.963C80.6976 36.2577 80.5106 36.507 80.2726 36.711C80.0346 36.9037 79.7626 37 79.4566 37C79.2979 37 79.1506 36.949 79.0146 36.847C78.8899 36.7337 78.8106 36.5353 78.7766 36.252C78.7426 35.9573 78.6973 35.7193 78.6406 35.538C78.5953 35.3567 78.4479 35.2263 78.1986 35.147L77.2466 36.881C77.1786 36.9377 77.0766 36.966 76.9406 36.966C76.7819 36.9433 76.6629 36.932 76.5836 36.932L76.6856 36.694C77.0596 36.0593 77.5016 35.3113 78.0116 34.45C78.5329 33.5773 78.9919 32.8067 79.3886 32.138C79.7966 31.458 80.1536 30.8403 80.4596 30.285C80.7656 29.7183 80.9923 29.435 81.1396 29.435C81.2756 29.4463 81.4173 29.452 81.5646 29.452ZM83.7675 34.841C83.5975 35.0677 83.4672 35.266 83.3765 35.436C83.2859 35.5947 83.1895 35.81 83.0875 36.082C83.1329 36.4107 83.1669 36.609 83.1895 36.677C83.2122 36.7337 83.2859 36.779 83.4105 36.813C83.4672 36.8583 83.5465 36.8697 83.6485 36.847C83.7505 36.8243 83.8355 36.796 83.9035 36.762C83.6882 36.9207 83.4219 37 83.1045 37C82.9119 37 82.7702 36.9603 82.6795 36.881C82.5209 36.6543 82.4415 36.4333 82.4415 36.218C82.4415 35.9347 82.5549 35.6513 82.7815 35.368C83.0195 35.0733 83.2235 34.8297 83.3935 34.637C83.5635 34.433 83.8525 34.195 84.2605 33.923C84.6799 33.651 85.0652 33.515 85.4165 33.515C85.6659 33.515 85.8585 33.5717 85.9945 33.685C86.1305 33.787 86.2155 33.838 86.2495 33.838C86.3855 33.7813 86.4932 33.7473 86.5725 33.736V33.974L85.0595 36.473C85.0369 36.575 85.0595 36.6713 85.1275 36.762C85.1955 36.8527 85.2749 36.8867 85.3655 36.864C85.7622 36.7847 86.0965 36.6487 86.3685 36.456C86.6519 36.2633 86.9012 36.0707 87.1165 35.878C86.9239 36.1387 86.6009 36.3937 86.1475 36.643C85.7055 36.881 85.3315 37 85.0255 37C84.8555 37 84.7422 36.9717 84.6855 36.915C84.6289 36.847 84.5892 36.7733 84.5665 36.694C84.5552 36.6033 84.5325 36.5467 84.4985 36.524C84.4192 36.49 84.3342 36.5127 84.2435 36.592C84.1529 36.6713 84.0905 36.7167 84.0565 36.728C84.4532 36.4447 84.7762 36.099 85.0255 35.691C85.2862 35.2717 85.5695 34.7447 85.8755 34.11C85.7735 33.9967 85.6885 33.906 85.6205 33.838C85.5525 33.77 85.4732 33.7247 85.3825 33.702C85.2919 33.6793 85.2239 33.668 85.1785 33.668C84.9179 33.668 84.6742 33.787 84.4475 34.025C84.2322 34.263 84.0055 34.535 83.7675 34.841Z" fill="black"/>
<path d="M35.1933 0.707274C34.9494 0.893196 34.3007 1.37772 33.7519 1.78337C33.203 2.18902 32.0499 3.03975 31.1962 3.67639C30.3369 4.31304 29.0618 5.25955 28.3688 5.77788C25.8796 7.61456 24.7653 8.44276 21.6995 10.7189L20.8458 11.3499L19.9809 11.3612L19.1161 11.3724L19.0995 11.7218L19.0828 12.0767H20.114H21.1396L22.1541 11.333C22.7085 10.9274 23.5623 10.302 24.0501 9.94704C24.538 9.58646 25.3252 9.0118 25.7964 8.66812C26.2677 8.32445 27.5538 7.38357 28.6515 6.58354C29.7492 5.77788 31.2738 4.66798 32.0333 4.11021C34.6832 2.17211 35.5758 1.52984 35.6423 1.50167C35.6811 1.4904 35.9805 1.67632 36.3131 1.92422C36.6402 2.16648 37.2611 2.62284 37.688 2.93271C38.5972 3.59188 39.2292 4.04824 43.4536 7.14131C45.1944 8.40896 47.4009 10.0203 48.36 10.7245C49.319 11.4231 50.1506 12.026 50.2005 12.0542C50.2504 12.0823 50.7327 12.0992 51.2705 12.088L52.2462 12.0711L52.2296 11.7218L52.2129 11.3724L51.3592 11.3555L50.5054 11.3386L50.1672 11.0964C49.8457 10.871 46.7134 8.54981 45.4771 7.62583C42.5832 5.46801 35.6756 0.357965 35.6534 0.363599C35.6423 0.363599 35.4372 0.521351 35.1933 0.707274Z" fill="black"/>
<path d="M35.3596 2.08761C34.6334 2.62848 29.5385 6.36946 27.7368 7.68218C27.3265 7.98642 25.7077 9.16956 24.1388 10.3245L21.2893 12.4147H20.1861H19.0828L19.0995 13.0739L19.1161 13.7387L20.369 13.7556L21.6219 13.7669L21.8936 13.581C22.0432 13.4796 23.7508 12.2401 25.6856 10.8316C29.9654 7.71599 31.429 6.65116 33.824 4.91025L35.6756 3.56372L36.6236 4.25671C37.1503 4.63419 38.2757 5.45112 39.1294 6.07649C39.9832 6.70186 41.918 8.10473 43.4259 9.20336C44.9338 10.302 46.7966 11.6542 47.5561 12.2119C48.3211 12.7641 49.1139 13.3444 49.3301 13.4965L49.7127 13.7669H50.9767H52.2407V13.0908V12.4147H51.1485L50.0508 12.4091L47.9719 10.8823C46.8298 10.0428 45.5049 9.07378 45.0336 8.73011C43.8195 7.83993 37.9375 3.52992 36.7567 2.65665C36.2134 2.25664 35.7366 1.91859 35.7033 1.90733C35.6645 1.89042 35.5148 1.97493 35.3596 2.08761Z" fill="black"/>
<path d="M4.28625 3.6257V4.41447H4.70204H5.11783V6.65116V8.8935L2.90028 10.1837C1.68063 10.8936 0.682739 11.4908 0.682739 11.5077C0.682739 11.5246 4.6466 11.5358 9.49748 11.5246L18.3122 11.5133V11.2091C18.3122 10.9274 18.3233 10.9048 18.4564 10.871C18.5395 10.8485 19.0495 10.8372 19.5873 10.8429L20.5741 10.8485L21.2893 10.3245C21.6773 10.0372 22.4757 9.4569 23.0522 9.03435C23.6343 8.6118 24.7043 7.82304 25.4361 7.28781C26.1679 6.75258 27.3044 5.91874 27.9585 5.44549C28.6127 4.9666 29.1893 4.53841 29.2336 4.49334C29.3001 4.42573 28.2025 4.41447 21.0453 4.41447H12.7739L11.4822 5.16942C10.7726 5.58634 9.80239 6.14974 9.33116 6.43144C8.85993 6.7075 8.45523 6.92723 8.43306 6.91033C8.41088 6.89906 8.39979 6.34129 8.40534 5.66521L8.41642 4.44264L8.84885 4.42573L9.27572 4.40883V3.6257V2.83694H6.78099H4.28625V3.6257ZM8.77678 3.6257V3.96375H6.75327H4.72976V3.6257V3.28766H6.75327H8.77678V3.6257ZM7.93411 5.90748L7.91748 7.24837L6.97502 7.80614C6.45944 8.11037 5.93832 8.41461 5.82744 8.47095L5.61677 8.58363V6.55539V4.52715L6.74218 4.51588C7.35755 4.50461 7.87867 4.51588 7.90639 4.53278C7.92856 4.54968 7.93965 5.16942 7.93411 5.90748ZM27.5705 5.0004C27.5705 5.02857 27.0383 5.42295 24.3273 7.40612C24.0224 7.63148 23.5733 7.96389 23.3294 8.13854C23.0855 8.31883 22.3149 8.88786 21.6164 9.40056L20.3413 10.3302H19.0551H17.7634L17.7467 10.6513L17.7301 10.9781L10.2348 10.995C6.11018 11.0006 2.73397 10.9893 2.73397 10.9668C2.73397 10.9386 2.81713 10.8767 2.91691 10.8147C3.01116 10.7584 4.20309 10.0654 5.56134 9.27661C8.20021 7.73853 9.82456 6.78638 10.9389 6.13284C11.3214 5.90748 11.9201 5.55253 12.2694 5.34971L12.907 4.97787H20.2359C24.2719 4.97787 27.5705 4.98913 27.5705 5.0004Z" fill="black"/>
<path d="M13.029 7.38922L11.4379 8.8935L11.8537 8.9104L12.2694 8.92731V9.79494V10.6682H14.6256H16.9817V9.79494V8.92731L17.4363 8.9104L17.8909 8.8935L16.2943 7.40049C15.4184 6.57793 14.6866 5.90185 14.6644 5.89621C14.6422 5.89058 13.9104 6.56102 13.029 7.38922ZM14.8473 6.48778C16.5659 8.08784 16.9817 8.48222 17.0094 8.52729C17.0316 8.5611 16.9706 8.58363 16.8764 8.58363C16.6546 8.58363 16.638 8.65687 16.6602 9.58648L16.6768 10.3302H16.1113H15.5459L15.5292 9.4062C15.5126 8.34137 15.4793 8.26249 15.0247 8.02587C14.6699 7.84558 14.3428 7.89065 14.0379 8.17235C13.7552 8.43151 13.7108 8.62307 13.7108 9.55268V10.3302H13.1565H12.6076L12.591 9.4738L12.5744 8.6118L12.4136 8.58363C12.2584 8.55546 12.3083 8.50476 13.4392 7.44556C14.0934 6.83146 14.6367 6.33003 14.6533 6.33003C14.6699 6.33003 14.7586 6.39764 14.8473 6.48778ZM14.9305 8.31883C15.1966 8.45405 15.2631 8.70195 15.2631 9.55268V10.3302H14.6478H14.0379L14.0546 9.45127L14.0712 8.57236L14.2541 8.40898C14.4482 8.22869 14.6921 8.19489 14.9305 8.31883Z" fill="black"/>
<path d="M42.0954 4.437C42.0954 4.45954 42.3781 4.67363 47.7113 8.57236L50.7993 10.8372H51.9357H53.0722V11.1753V11.5133L61.887 11.5246C66.7379 11.5358 70.7017 11.5246 70.7017 11.5077C70.7017 11.4739 68.9942 10.4598 67.8743 9.82311C67.5195 9.62028 64.7587 8.00896 63.3561 7.18639C62.9625 6.9554 61.7262 6.23425 60.623 5.58634L58.605 4.41446H50.3502C45.8098 4.41446 42.0954 4.42573 42.0954 4.437ZM58.6993 5.10745C60.7172 6.29059 64.4039 8.44278 66.7545 9.81184C67.7967 10.4203 68.6505 10.9386 68.6505 10.9612C68.6505 10.9893 65.2743 11.0006 61.1552 10.995L53.6543 10.9781L53.6377 10.64L53.6211 10.302L52.3405 10.3189C51.1541 10.3358 51.0432 10.3245 50.9101 10.2288C50.766 10.1161 48.5983 8.53292 47.9719 8.07657C46.1313 6.73567 43.936 5.11872 43.8694 5.05674C43.8029 4.98913 44.8174 4.97787 51.1319 4.97787H58.4775L58.6993 5.10745Z" fill="black"/>
<path d="M56.4263 6.14411C55.9883 6.56666 55.4783 7.04555 54.7631 7.71036C54.3972 8.0484 53.9593 8.45968 53.7929 8.62307L53.488 8.92167H53.9482H54.4028V9.79494V10.6682H56.7589H59.1151V9.79494V8.92731L59.5364 8.9104L59.9577 8.8935L59.298 8.2794C58.9377 7.94135 58.3334 7.36669 57.9508 7.00611C57.0417 6.14974 56.7534 5.87931 56.7257 5.87931C56.7146 5.87931 56.5815 5.99762 56.4263 6.14411ZM56.9252 6.48778C58.9875 8.40898 59.1317 8.55546 58.9709 8.58363L58.8101 8.6118L58.7935 9.4738L58.7769 10.3302H58.228H57.6737V9.55268C57.6737 8.62307 57.6293 8.43151 57.341 8.17235C56.9918 7.85121 56.5316 7.83994 56.1491 8.14418C55.8885 8.347 55.8442 8.55546 55.8442 9.48507V10.3302H55.2898H54.7409L54.7243 9.46817L54.7077 8.6118L54.5192 8.58363L54.3252 8.55546L55.5171 7.44556C56.1713 6.83146 56.7146 6.33003 56.7312 6.33003C56.7478 6.33003 56.8365 6.39764 56.9252 6.48778ZM57.1525 8.43715L57.341 8.6287V9.47944V10.3302H56.7312H56.1214V9.55268C56.1214 8.93294 56.138 8.74138 56.2212 8.58363C56.4097 8.19489 56.8476 8.12728 57.1525 8.43715Z" fill="black"/>
<path d="M34.7165 5.96947C34.1843 6.35821 33.5356 6.82584 33.2695 7.01739L32.7817 7.36107V9.29916V11.2316H35.6922H38.5972L38.6138 9.3386C38.6249 8.29631 38.6194 7.42868 38.6027 7.40614C38.5861 7.3836 38.0373 6.97795 37.3831 6.49906C36.7289 6.02581 36.0747 5.55255 35.9361 5.45114L35.6867 5.26522L34.7165 5.96947ZM36.9673 6.73006L38.2147 7.63713V9.23719V10.8372H35.6922H33.1697V9.23156V7.62587L33.4359 7.42868C34.1843 6.87091 35.6423 5.82862 35.6756 5.82298C35.6977 5.82298 36.2799 6.22863 36.9673 6.73006Z" fill="black"/>
<path d="M34.4837 7.10189L33.4969 7.81177L33.5135 8.09911L33.5302 8.38644L34.517 8.40334L35.4982 8.41461V7.40049C35.4982 6.84272 35.4927 6.38637 35.4816 6.38637C35.476 6.38637 35.0214 6.70751 34.4837 7.10189Z" fill="black"/>
<path d="M35.8308 7.40049V8.41461H36.8564H37.882V8.11601V7.82304L36.8897 7.10189C36.3408 6.70751 35.8807 6.38637 35.8641 6.38637C35.8474 6.38637 35.8308 6.84272 35.8308 7.40049Z" fill="black"/>
<path d="M33.5412 8.79211C33.519 8.80901 33.5024 9.19212 33.5024 9.63721V10.4429H34.5003H35.4982V9.59777V8.75267H34.5391C34.0069 8.75267 33.5578 8.76957 33.5412 8.79211Z" fill="black"/>
<path d="M35.8696 8.78647C35.8474 8.80901 35.8308 9.19212 35.8308 9.63721V10.4429H36.8564H37.8876L37.871 9.60904L37.8543 8.78084L36.8786 8.76394C36.3464 8.7583 35.8918 8.76957 35.8696 8.78647Z" fill="black"/>
<path d="M5.26198 17.891C5.22317 17.9924 4.43594 19.8629 3.51566 22.0489C2.59538 24.2349 1.75271 26.2012 1.65292 26.4209C1.29257 27.1702 1.01538 27.4463 0.499801 27.5421C0.333485 27.5759 0.294678 27.604 0.294678 27.7167V27.8519H1.84696H3.39924V27.7223C3.39924 27.6097 3.36043 27.5871 3.01117 27.5308C2.36254 27.4294 2.17405 27.2153 2.28492 26.7082C2.31819 26.5617 2.52885 26.0096 2.74506 25.4856L3.14977 24.5279H5.04022H6.93068L7.30212 25.4293C7.72345 26.4378 7.85096 26.8547 7.80106 27.0688C7.75671 27.3054 7.54605 27.4575 7.17461 27.5308C6.88078 27.5871 6.83643 27.6097 6.83643 27.7223V27.8519H8.74907H10.6617V27.7167C10.6617 27.604 10.6284 27.5815 10.4344 27.5477C9.7525 27.435 9.43096 27.0294 8.81559 25.5138C8.57721 24.9279 8.05054 23.6433 6.33749 19.4967C5.66668 17.8741 5.58906 17.7107 5.47264 17.7107C5.3784 17.7107 5.31742 17.7614 5.26198 17.891ZM6.43173 23.2602C6.58696 23.6321 6.70338 23.9588 6.68675 23.9814C6.65349 24.0377 3.46022 24.0208 3.42696 23.9645C3.41033 23.9419 3.49903 23.694 3.61545 23.4236C3.85384 22.8715 4.82956 20.5728 4.97924 20.2179L5.06794 19.9925L5.61124 21.2883C5.91061 21.9982 6.2765 22.8884 6.43173 23.2602Z" fill="black"/>
<path d="M34.8163 17.8628C34.7719 17.953 34.5668 18.4262 34.3617 18.922C32.8482 22.5503 31.2959 26.2068 31.1019 26.5786C30.7914 27.1871 30.6085 27.373 30.1872 27.4914C29.8933 27.5759 29.8434 27.6097 29.8434 27.7223V27.8519H31.368H32.8926V27.7111C32.8926 27.6097 32.8648 27.5702 32.7817 27.5702C32.4934 27.5702 32.0832 27.435 31.939 27.2885C31.6785 27.0181 31.7339 26.7646 32.377 25.2716L32.693 24.5279H34.589H36.4794L36.5681 24.7363C37.3776 26.7308 37.4496 27.0237 37.2112 27.3111C37.1114 27.4237 36.9895 27.4801 36.7345 27.5308C36.4296 27.5871 36.3852 27.6097 36.3852 27.7223V27.8519H38.2978H40.2105V27.7111C40.2105 27.6097 40.1827 27.5702 40.1107 27.5702C39.8501 27.5702 39.4399 27.3899 39.2458 27.1928C39.0407 26.9843 38.6582 26.2857 38.4475 25.7279C38.3865 25.5814 38.0484 24.7476 37.688 23.88C36.6347 21.339 36.1357 20.1221 35.6257 18.877C35.1988 17.8347 35.1323 17.7107 35.0214 17.7107C34.9327 17.7107 34.8662 17.7614 34.8163 17.8628ZM35.1933 21.3841C35.4926 22.1052 35.8419 22.9616 35.9805 23.2828C36.1136 23.6039 36.2133 23.9025 36.1967 23.9419C36.1745 24.0039 35.8419 24.0152 34.589 24.0152C33.7186 24.0152 32.9924 23.9926 32.9757 23.9701C32.9425 23.9081 34.5557 20.077 34.6112 20.077C34.6333 20.077 34.8939 20.6686 35.1933 21.3841Z" fill="black"/>
<path d="M11.1052 18.0769C11.1052 18.2121 11.1219 18.2178 11.4545 18.2178C11.8925 18.2234 12.2251 18.3699 12.3637 18.6234C12.4579 18.7981 12.4635 19.0516 12.4635 22.894C12.4635 26.866 12.4579 26.9843 12.3526 27.1646C12.1974 27.4237 11.8703 27.5702 11.4489 27.5702C11.1219 27.5702 11.1052 27.5759 11.1052 27.7111V27.8519H13.1731C14.3151 27.8519 15.2576 27.835 15.2742 27.8181C15.2908 27.8012 15.2964 27.7449 15.2798 27.6829C15.2576 27.5984 15.1855 27.5759 14.8473 27.559C14.3706 27.5364 14.1876 27.435 14.0158 27.0857C13.9104 26.8829 13.9049 26.7364 13.8882 25.0462L13.8716 23.232H14.3872H14.9083L15.2631 23.7222C15.4572 23.9983 15.7454 24.3927 15.9007 24.6124C16.0614 24.8265 16.6435 25.649 17.2035 26.4322L18.218 27.8519H19.5097H20.807V27.7223C20.807 27.604 20.7682 27.5815 20.4688 27.5252C19.7038 27.3843 19.1494 26.9674 18.473 26.049C17.8798 25.2378 16.4218 23.1701 16.3941 23.0968C16.3774 23.0518 16.5105 22.9841 16.7711 22.8996C17.9131 22.5334 18.5285 21.8686 18.7003 20.8263C18.7613 20.4488 18.6781 19.8516 18.5118 19.4854C18.2623 18.9333 17.7246 18.4544 17.1037 18.2178C16.5049 17.9868 15.8341 17.9361 13.3948 17.9361H11.1052V18.0769ZM15.7066 18.5896C16.5216 18.8375 17.0316 19.5136 17.0815 20.4207C17.1369 21.4348 16.577 22.2517 15.5958 22.5729C15.2354 22.6912 14.2209 22.8095 14.0158 22.7588L13.8772 22.725V20.6686V18.6178L14.1433 18.584C14.2874 18.5615 14.4315 18.5389 14.4593 18.5277C14.6256 18.4713 15.4461 18.5107 15.7066 18.5896Z" fill="black"/>
<path d="M21.0287 18.0769C21.0287 18.2121 21.0453 18.2178 21.3779 18.2178C21.8492 18.2234 22.1652 18.3699 22.2927 18.6516C22.3758 18.8432 22.3869 19.2206 22.4036 22.6348C22.4202 26.5054 22.398 27.0294 22.2095 27.2491C22.0432 27.435 21.6939 27.5702 21.3558 27.5702C21.1174 27.5702 21.0342 27.5928 21.0065 27.6604C20.9899 27.7111 20.9843 27.7731 21.0065 27.8012C21.0231 27.8294 22.5921 27.8519 24.7874 27.8519H28.5406L28.9231 26.7364C29.3999 25.3335 29.3944 25.373 29.2225 25.373C29.1172 25.373 29.0507 25.4349 28.9398 25.6378C28.5517 26.3646 28.0805 26.8998 27.6259 27.1139C27.321 27.2604 27.3099 27.2604 25.7243 27.2773L24.1332 27.2942L23.9669 27.1251L23.8006 26.9618V24.9561V22.9503H25.109C25.8518 22.9503 26.5116 22.9785 26.6502 23.0123C26.9052 23.0743 27.2156 23.3335 27.2932 23.5475C27.321 23.6208 27.3709 23.8462 27.4097 24.049C27.4651 24.3814 27.4817 24.4152 27.6037 24.4152H27.7368L27.7257 22.6799C27.709 21.0179 27.7035 20.9503 27.6037 20.9503C27.515 20.9503 27.4817 21.0179 27.4263 21.2996C27.2932 21.9644 27.0992 22.2179 26.6224 22.325C26.4894 22.3588 25.7964 22.3869 25.0923 22.3869H23.8006V20.4094V18.4262L25.4804 18.46C26.4949 18.4769 27.2434 18.5164 27.3764 18.5558C27.8532 18.6967 28.0971 19.0122 28.269 19.7052C28.3521 20.0376 28.3743 20.077 28.4963 20.077H28.6349L28.5961 19.046C28.5739 18.4826 28.5462 18.0037 28.5295 17.9755C28.5184 17.953 26.822 17.9361 24.7652 17.9361H21.0287V18.0769Z" fill="black"/>
<path d="M40.6706 18.0262C40.6207 18.167 40.7094 18.2065 41.1363 18.229C41.6019 18.2516 41.7849 18.3586 41.9567 18.7023C42.0621 18.9164 42.0676 19.0347 42.0676 22.894C42.0676 26.7533 42.0621 26.8716 41.9567 27.0913C41.8071 27.3899 41.552 27.5308 41.0753 27.5646C40.7316 27.5927 40.6817 27.6096 40.6817 27.7111C40.6817 27.8237 40.7205 27.8237 44.4737 27.8237H48.2657L48.31 27.6829C48.3322 27.604 48.5151 27.0237 48.7147 26.3871C48.9143 25.7504 49.0806 25.2096 49.0806 25.187C49.0806 25.1645 49.0252 25.1476 48.9586 25.1476C48.8533 25.1532 48.7868 25.2434 48.5927 25.649C48.1215 26.635 47.5727 27.0631 46.608 27.1815C45.9539 27.266 44.0024 27.2209 43.8029 27.1251C43.4813 26.9617 43.4813 26.9674 43.4813 22.8771C43.4813 20.8263 43.509 19.0516 43.5312 18.9276C43.6365 18.4826 44.0911 18.2178 44.7675 18.2178C45.0724 18.2178 45.089 18.2121 45.089 18.0769V17.9361H42.8992C40.9589 17.9361 40.7038 17.9473 40.6706 18.0262Z" fill="black"/>
<path d="M53.4048 18.0769C53.4048 18.2121 53.4215 18.2178 53.7541 18.2178C54.1921 18.2234 54.5247 18.3699 54.6633 18.6234C54.7575 18.7981 54.7631 19.0516 54.7631 22.9053C54.7631 26.9505 54.7631 27.0012 54.6467 27.1533C54.4249 27.4575 54.2586 27.5364 53.8151 27.559C53.427 27.5815 53.4048 27.5871 53.4048 27.7167V27.8519H57.1913H60.9722L61.3769 26.5392C61.5987 25.8237 61.7816 25.2152 61.7761 25.187C61.7761 25.1645 61.7262 25.1476 61.6652 25.1476C61.582 25.1476 61.5155 25.2265 61.4213 25.4518C61.133 26.1167 60.7117 26.6463 60.2515 26.9167C59.8413 27.1646 59.5197 27.204 58.034 27.204C56.5482 27.204 56.4872 27.1928 56.2987 26.9111C56.21 26.7702 56.2045 26.4772 56.2045 22.8377C56.2045 18.9896 56.2045 18.9164 56.3209 18.7248C56.4983 18.415 56.8365 18.2572 57.3798 18.229C57.8178 18.2065 57.8399 18.1952 57.8399 18.0713V17.9361H55.6224H53.4048V18.0769Z" fill="black"/>
<path d="M60.8891 18.0657C60.8891 18.1783 60.9335 18.2009 61.2328 18.2572C61.6375 18.3361 61.9646 18.5558 62.1365 18.8713C62.2529 19.0854 62.652 20.0094 64.7421 24.8941C65.3131 26.2293 65.8509 27.4801 65.934 27.6829C66.0615 27.9815 66.117 28.0548 66.2334 28.066C66.3498 28.0829 66.3886 28.0491 66.4607 27.8688C66.5106 27.7505 66.8598 26.8941 67.2368 25.9645C67.6083 25.0349 68.2125 23.5532 68.5673 22.6686C68.9222 21.7841 69.3546 20.7193 69.5209 20.3024C69.909 19.339 70.0586 19.0403 70.3026 18.7305C70.4911 18.4938 70.9512 18.2178 71.1619 18.2178C71.2229 18.2178 71.2561 18.1727 71.2561 18.0769V17.9361H69.7593H68.2624V18.0769C68.2624 18.1614 68.2957 18.2178 68.34 18.2178C68.5452 18.2178 68.9998 18.4206 69.1273 18.5671C69.3823 18.8826 69.3269 19.1023 68.4731 21.232C68.1349 22.0658 67.5916 23.4123 67.2701 24.2236C66.9485 25.0293 66.6603 25.6941 66.6325 25.7054C66.6048 25.711 66.433 25.3673 66.25 24.9392C66.0671 24.511 65.496 23.1701 64.9749 21.9644C63.9604 19.5981 63.8273 19.2375 63.8273 18.8657C63.8273 18.6629 63.8551 18.5953 63.9937 18.4826C64.1378 18.3586 64.5647 18.2178 64.7975 18.2178C64.8474 18.2178 64.8807 18.1614 64.8807 18.0769V17.9361H62.8849H60.8891V18.0657Z" fill="black"/>
<path d="M50.8713 26.5336C50.3724 26.7815 50.3225 27.5646 50.7826 27.897C51.1374 28.1505 51.5588 28.0998 51.8471 27.7674C52.0744 27.5026 52.1132 27.2547 51.9746 26.928C51.7805 26.4885 51.3038 26.3195 50.8713 26.5336Z" fill="black"/>
</svg>
